<?xml version="1.0" encoding="UTF-8"?>
<!DOCTYPE svg PUBLIC "-//W3C//DTD SVG 1.1//EN" "http://www.w3.org/Graphics/SVG/1.1/DTD/svg11.dtd">
<svg xmlns="http://www.w3.org/2000/svg" style="background-color: rgb(255, 255, 255);" xmlns:xlink="http://www.w3.org/1999/xlink" version="1.1" width="782px" height="541px" viewBox="-0.5 -0.5 782 541"><defs/><g><rect x="0" y="-0.33" width="780" height="540" fill="#ffffff" stroke="none" pointer-events="none"/><ellipse cx="170" cy="183.67" rx="10" ry="10" fill="#000000" stroke="#000000" transform="translate(2,3)" opacity="0.25"/><ellipse cx="170" cy="183.67" rx="10" ry="10" fill="#cccccc" stroke="#666666" pointer-events="none"/><ellipse cx="249" cy="110.67" rx="10" ry="10" fill="#000000" stroke="#000000" transform="translate(2,3)" opacity="0.25"/><ellipse cx="249" cy="110.67" rx="10" ry="10" fill="#cccccc" stroke="#666666" pointer-events="none"/><ellipse cx="189" cy="130.67" rx="10" ry="10" fill="#000000" stroke="#000000" transform="translate(2,3)" opacity="0.25"/><ellipse cx="189" cy="130.67" rx="10" ry="10" fill="#cccccc" stroke="#666666" pointer-events="none"/><ellipse cx="209" cy="190.67" rx="10" ry="10" fill="#000000" stroke="#000000" transform="translate(2,3)" opacity="0.25"/><ellipse cx="209" cy="190.67" rx="10" ry="10" fill="#cccccc" stroke="#666666" pointer-events="none"/><ellipse cx="229" cy="209.67" rx="10" ry="10" fill="#000000" stroke="#000000" transform="translate(2,3)" opacity="0.25"/><ellipse cx="229" cy="209.67" rx="10" ry="10" fill="#cccccc" stroke="#666666" pointer-events="none"/><ellipse cx="269" cy="150.67" rx="10" ry="10" fill="#000000" stroke="#000000" transform="translate(2,3)" opacity="0.25"/><ellipse cx="269" cy="150.67" rx="10" ry="10" fill="#cccccc" stroke="#666666" pointer-events="none"/><ellipse cx="329" cy="163.67" rx="10" ry="10" fill="#000000" stroke="#000000" transform="translate(2,3)" opacity="0.25"/><ellipse cx="329" cy="163.67" rx="10" ry="10" fill="#cccccc" stroke="#666666" pointer-events="none"/><ellipse cx="289" cy="223.67" rx="10" ry="10" fill="#000000" stroke="#000000" transform="translate(2,3)" opacity="0.25"/><ellipse cx="289" cy="223.67" rx="10" ry="10" fill="#cccccc" stroke="#666666" pointer-events="none"/><ellipse cx="349" cy="236.67" rx="10" ry="10" fill="#000000" stroke="#000000" transform="translate(2,3)" opacity="0.25"/><ellipse cx="349" cy="236.67" rx="10" ry="10" fill="#cccccc" stroke="#666666" pointer-events="none"/><ellipse cx="309" cy="97.67" rx="10" ry="10" fill="#000000" stroke="#000000" transform="translate(2,3)" opacity="0.25"/><ellipse cx="309" cy="97.67" rx="10" ry="10" fill="#cccccc" stroke="#666666" pointer-events="none"/><ellipse cx="369" cy="176.67" rx="10" ry="10" fill="#000000" stroke="#000000" transform="translate(2,3)" opacity="0.25"/><ellipse cx="369" cy="176.67" rx="10" ry="10" fill="#cccccc" stroke="#666666" pointer-events="none"/><ellipse cx="449" cy="229.67" rx="10" ry="10" fill="#000000" stroke="#000000" transform="translate(2,3)" opacity="0.25"/><ellipse cx="449" cy="229.67" rx="10" ry="10" fill="#cccccc" stroke="#666666" pointer-events="none"/><ellipse cx="389" cy="123.67" rx="10" ry="10" fill="#000000" stroke="#000000" transform="translate(2,3)" opacity="0.25"/><ellipse cx="389" cy="123.67" rx="10" ry="10" fill="#cccccc" stroke="#666666" pointer-events="none"/><ellipse cx="409" cy="216.67" rx="10" ry="10" fill="#000000" stroke="#000000" transform="translate(2,3)" opacity="0.25"/><ellipse cx="409" cy="216.67" rx="10" ry="10" fill="#cccccc" stroke="#666666" pointer-events="none"/><ellipse cx="429" cy="70.67" rx="10" ry="10" fill="#000000" stroke="#000000" transform="translate(2,3)" opacity="0.25"/><ellipse cx="429" cy="70.67" rx="10" ry="10" fill="#cccccc" stroke="#666666" pointer-events="none"/><ellipse cx="459" cy="137.67" rx="10" ry="10" fill="#000000" stroke="#000000" transform="translate(2,3)" opacity="0.25"/><ellipse cx="459" cy="137.67" rx="10" ry="10" fill="#cccccc" stroke="#666666" pointer-events="none"/><ellipse cx="558" cy="156.67" rx="10" ry="10" fill="#000000" stroke="#000000" transform="translate(2,3)" opacity="0.25"/><ellipse cx="558" cy="156.67" rx="10" ry="10" fill="#cccccc" stroke="#666666" pointer-events="none"/><ellipse cx="469" cy="84.67" rx="10" ry="10" fill="#000000" stroke="#000000" transform="translate(2,3)" opacity="0.25"/><ellipse cx="469" cy="84.67" rx="10" ry="10" fill="#cccccc" stroke="#666666" pointer-events="none"/><ellipse cx="499" cy="203.67" rx="10" ry="10" fill="#000000" stroke="#000000" transform="translate(2,3)" opacity="0.25"/><ellipse cx="499" cy="203.67" rx="10" ry="10" fill="#cccccc" stroke="#666666" pointer-events="none"/><ellipse cx="529" cy="104.67" rx="10" ry="10" fill="#000000" stroke="#000000" transform="translate(2,3)" opacity="0.25"/><ellipse cx="529" cy="104.67" rx="10" ry="10" fill="#cccccc" stroke="#666666" pointer-events="none"/><ellipse cx="180" cy="408.67" rx="10" ry="10" fill="#000000" stroke="#000000" transform="translate(2,3)" opacity="0.25"/><ellipse cx="180" cy="408.67" rx="10" ry="10" fill="#cccccc" stroke="#666666" pointer-events="none"/><ellipse cx="319" cy="335.67" rx="10" ry="10" fill="#000000" stroke="#000000" transform="translate(2,3)" opacity="0.25"/><ellipse cx="319" cy="335.67" rx="10" ry="10" fill="#cccccc" stroke="#666666" pointer-events="none"/><ellipse cx="219" cy="368.67" rx="10" ry="10" fill="#000000" stroke="#000000" transform="translate(2,3)" opacity="0.25"/><ellipse cx="219" cy="368.67" rx="10" ry="10" fill="#cccccc" stroke="#666666" pointer-events="none"/><ellipse cx="259" cy="428.67" rx="10" ry="10" fill="#000000" stroke="#000000" transform="translate(2,3)" opacity="0.25"/><ellipse cx="259" cy="428.67" rx="10" ry="10" fill="#cccccc" stroke="#666666" pointer-events="none"/><ellipse cx="279" cy="441.67" rx="10" ry="10" fill="#000000" stroke="#000000" transform="translate(2,3)" opacity="0.25"/><ellipse cx="279" cy="441.67" rx="10" ry="10" fill="#cccccc" stroke="#666666" pointer-events="none"/><ellipse cx="339" cy="375.67" rx="10" ry="10" fill="#000000" stroke="#000000" transform="translate(2,3)" opacity="0.25"/><ellipse cx="339" cy="375.67" rx="10" ry="10" fill="#cccccc" stroke="#666666" pointer-events="none"/><ellipse cx="399" cy="401.67" rx="10" ry="10" fill="#000000" stroke="#000000" transform="translate(2,3)" opacity="0.25"/><ellipse cx="399" cy="401.67" rx="10" ry="10" fill="#cccccc" stroke="#666666" pointer-events="none"/><ellipse cx="359" cy="447.67" rx="10" ry="10" fill="#000000" stroke="#000000" transform="translate(2,3)" opacity="0.25"/><ellipse cx="359" cy="447.67" rx="10" ry="10" fill="#cccccc" stroke="#666666" pointer-events="none"/><ellipse cx="160" cy="302.67" rx="10" ry="10" fill="#000000" stroke="#000000" transform="translate(2,3)" opacity="0.25"/><ellipse cx="160" cy="302.67" rx="10" ry="10" fill="#cccccc" stroke="#666666" pointer-events="none"/><ellipse cx="379" cy="328.67" rx="10" ry="10" fill="#000000" stroke="#000000" transform="translate(2,3)" opacity="0.25"/><ellipse cx="379" cy="328.67" rx="10" ry="10" fill="#cccccc" stroke="#666666" pointer-events="none"/><ellipse cx="199" cy="256.67" rx="10" ry="10" fill="#000000" stroke="#000000" transform="translate(2,3)" opacity="0.25"/><ellipse cx="199" cy="256.67" rx="10" ry="10" fill="#cccccc" stroke="#666666" pointer-events="none"/><ellipse cx="299" cy="295.67" rx="10" ry="10" fill="#000000" stroke="#000000" transform="translate(2,3)" opacity="0.25"/><ellipse cx="299" cy="295.67" rx="10" ry="10" fill="#cccccc" stroke="#666666" pointer-events="none"/><ellipse cx="419" cy="348.67" rx="10" ry="10" fill="#000000" stroke="#000000" transform="translate(2,3)" opacity="0.25"/><ellipse cx="419" cy="348.67" rx="10" ry="10" fill="#cccccc" stroke="#666666" pointer-events="none"/><ellipse cx="239" cy="262.67" rx="10" ry="10" fill="#000000" stroke="#000000" transform="translate(2,3)" opacity="0.25"/><ellipse cx="239" cy="262.67" rx="10" ry="10" fill="#cccccc" stroke="#666666" pointer-events="none"/><ellipse cx="439" cy="275.67" rx="10" ry="10" fill="#000000" stroke="#000000" transform="translate(2,3)" opacity="0.25"/><ellipse cx="439" cy="275.67" rx="10" ry="10" fill="#cccccc" stroke="#666666" pointer-events="none"/><ellipse cx="70" cy="355.67" rx="10" ry="10" fill="#000000" stroke="#000000" transform="translate(2,3)" opacity="0.25"/><ellipse cx="70" cy="355.67" rx="10" ry="10" fill="#cccccc" stroke="#666666" pointer-events="none"/><ellipse cx="150" cy="388.67" rx="10" ry="10" fill="#000000" stroke="#000000" transform="translate(2,3)" opacity="0.25"/><ellipse cx="150" cy="388.67" rx="10" ry="10" fill="#cccccc" stroke="#666666" pointer-events="none"/><ellipse cx="90" cy="282.67" rx="10" ry="10" fill="#000000" stroke="#000000" transform="translate(2,3)" opacity="0.25"/><ellipse cx="90" cy="282.67" rx="10" ry="10" fill="#cccccc" stroke="#666666" pointer-events="none"/><ellipse cx="110" cy="421.67" rx="10" ry="10" fill="#000000" stroke="#000000" transform="translate(2,3)" opacity="0.25"/><ellipse cx="110" cy="421.67" rx="10" ry="10" fill="#cccccc" stroke="#666666" pointer-events="none"/><ellipse cx="130" cy="315.67" rx="10" ry="10" fill="#000000" stroke="#000000" transform="translate(2,3)" opacity="0.25"/><ellipse cx="130" cy="315.67" rx="10" ry="10" fill="#cccccc" stroke="#666666" pointer-events="none"/><ellipse cx="489" cy="342.67" rx="10" ry="10" fill="#000000" stroke="#000000" transform="translate(2,3)rotate(180,489,342.67)" opacity="0.25"/><ellipse cx="489" cy="342.67" rx="10" ry="10" fill="#cccccc" stroke="#666666" transform="rotate(180,489,342.67)" pointer-events="none"/><ellipse cx="538" cy="269.67" rx="10" ry="10" fill="#000000" stroke="#000000" transform="translate(2,3)rotate(180,538,269.67)" opacity="0.25"/><ellipse cx="538" cy="269.67" rx="10" ry="10" fill="#cccccc" stroke="#666666" transform="rotate(180,538,269.67)" pointer-events="none"/><ellipse cx="608" cy="289.67" rx="10" ry="10" fill="#000000" stroke="#000000" transform="translate(2,3)rotate(180,608,289.67)" opacity="0.25"/><ellipse cx="608" cy="289.67" rx="10" ry="10" fill="#cccccc" stroke="#666666" transform="rotate(180,608,289.67)" pointer-events="none"/><ellipse cx="568" cy="322.67" rx="10" ry="10" fill="#000000" stroke="#000000" transform="translate(2,3)rotate(180,568,322.67)" opacity="0.25"/><ellipse cx="568" cy="322.67" rx="10" ry="10" fill="#cccccc" stroke="#666666" transform="rotate(180,568,322.67)" pointer-events="none"/><ellipse cx="509" cy="461.67" rx="10" ry="10" fill="#000000" stroke="#000000" transform="translate(2,3)rotate(180,509,461.67)" opacity="0.25"/><ellipse cx="509" cy="461.67" rx="10" ry="10" fill="#cccccc" stroke="#666666" transform="rotate(180,509,461.67)" pointer-events="none"/><ellipse cx="588" cy="242.67" rx="10" ry="10" fill="#000000" stroke="#000000" transform="translate(2,3)rotate(180,588,242.67)" opacity="0.25"/><ellipse cx="588" cy="242.67" rx="10" ry="10" fill="#cccccc" stroke="#666666" transform="rotate(180,588,242.67)" pointer-events="none"/><ellipse cx="658" cy="309.67" rx="10" ry="10" fill="#000000" stroke="#000000" transform="translate(2,3)rotate(180,658,309.67)" opacity="0.25"/><ellipse cx="658" cy="309.67" rx="10" ry="10" fill="#cccccc" stroke="#666666" transform="rotate(180,658,309.67)" pointer-events="none"/><ellipse cx="638" cy="361.67" rx="10" ry="10" fill="#000000" stroke="#000000" transform="translate(2,3)rotate(180,638,361.67)" opacity="0.25"/><ellipse cx="638" cy="361.67" rx="10" ry="10" fill="#cccccc" stroke="#666666" transform="rotate(180,638,361.67)" pointer-events="none"/><ellipse cx="678" cy="249.67" rx="10" ry="10" fill="#000000" stroke="#000000" transform="translate(2,3)rotate(180,678,249.67)" opacity="0.25"/><ellipse cx="678" cy="249.67" rx="10" ry="10" fill="#cccccc" stroke="#666666" transform="rotate(180,678,249.67)" pointer-events="none"/><ellipse cx="618" cy="414.67" rx="10" ry="10" fill="#000000" stroke="#000000" transform="translate(2,3)rotate(180,618,414.67)" opacity="0.25"/><ellipse cx="618" cy="414.67" rx="10" ry="10" fill="#cccccc" stroke="#666666" transform="rotate(180,618,414.67)" pointer-events="none"/><ellipse cx="598" cy="467.67" rx="10" ry="10" fill="#000000" stroke="#000000" transform="translate(2,3)rotate(180,598,467.67)" opacity="0.25"/><ellipse cx="598" cy="467.67" rx="10" ry="10" fill="#cccccc" stroke="#666666" transform="rotate(180,598,467.67)" pointer-events="none"/><ellipse cx="519" cy="494.67" rx="10" ry="10" fill="#000000" stroke="#000000" transform="translate(2,3)rotate(180,519,494.67)" opacity="0.25"/><ellipse cx="519" cy="494.67" rx="10" ry="10" fill="#cccccc" stroke="#666666" transform="rotate(180,519,494.67)" pointer-events="none"/><ellipse cx="548" cy="500.67" rx="10" ry="10" fill="#000000" stroke="#000000" transform="translate(2,3)rotate(180,548,500.67)" opacity="0.25"/><ellipse cx="548" cy="500.67" rx="10" ry="10" fill="#cccccc" stroke="#666666" transform="rotate(180,548,500.67)" pointer-events="none"/><ellipse cx="628" cy="481.67" rx="10" ry="10" fill="#000000" stroke="#000000" transform="translate(2,3)rotate(180,628,481.67)" opacity="0.25"/><ellipse cx="628" cy="481.67" rx="10" ry="10" fill="#cccccc" stroke="#666666" transform="rotate(180,628,481.67)" pointer-events="none"/><ellipse cx="688" cy="487.67" rx="10" ry="10" fill="#000000" stroke="#000000" transform="translate(2,3)rotate(180,688,487.67)" opacity="0.25"/><ellipse cx="688" cy="487.67" rx="10" ry="10" fill="#cccccc" stroke="#666666" transform="rotate(180,688,487.67)" pointer-events="none"/><ellipse cx="648" cy="507.67" rx="10" ry="10" fill="#000000" stroke="#000000" transform="translate(2,3)rotate(180,648,507.67)" opacity="0.25"/><ellipse cx="648" cy="507.67" rx="10" ry="10" fill="#cccccc" stroke="#666666" transform="rotate(180,648,507.67)" pointer-events="none"/><ellipse cx="668" cy="454.67" rx="10" ry="10" fill="#000000" stroke="#000000" transform="translate(2,3)rotate(180,668,454.67)" opacity="0.25"/><ellipse cx="668" cy="454.67" rx="10" ry="10" fill="#cccccc" stroke="#666666" transform="rotate(180,668,454.67)" pointer-events="none"/><ellipse cx="578" cy="434.67" rx="10" ry="10" fill="#000000" stroke="#000000" transform="translate(2,3)rotate(180,578,434.67)" opacity="0.25"/><ellipse cx="578" cy="434.67" rx="10" ry="10" fill="#cccccc" stroke="#666666" transform="rotate(180,578,434.67)" pointer-events="none"/><ellipse cx="698" cy="474.67" rx="10" ry="10" fill="#000000" stroke="#000000" transform="translate(2,3)rotate(180,698,474.67)" opacity="0.25"/><ellipse cx="698" cy="474.67" rx="10" ry="10" fill="#cccccc" stroke="#666666" transform="rotate(180,698,474.67)" pointer-events="none"/><ellipse cx="479" cy="381.67" rx="10" ry="10" fill="#000000" stroke="#000000" transform="translate(2,3)rotate(180,479,381.67)" opacity="0.25"/><ellipse cx="479" cy="381.67" rx="10" ry="10" fill="#cccccc" stroke="#666666" transform="rotate(180,479,381.67)" pointer-events="none"/><ellipse cx="708" cy="395.67" rx="10" ry="10" fill="#000000" stroke="#000000" transform="translate(2,3)rotate(180,708,395.67)" opacity="0.25"/><ellipse cx="708" cy="395.67" rx="10" ry="10" fill="#cccccc" stroke="#666666" transform="rotate(180,708,395.67)" pointer-events="none"/><ellipse cx="140" cy="44.67" rx="10" ry="10" fill="#000000" stroke="#000000" transform="translate(2,3)" opacity="0.25"/><ellipse cx="140" cy="44.67" rx="10" ry="10" fill="#cccccc" stroke="#666666" pointer-events="none"/><ellipse cx="80" cy="170.67" rx="10" ry="10" fill="#000000" stroke="#000000" transform="translate(2,3)" opacity="0.25"/><ellipse cx="80" cy="170.67" rx="10" ry="10" fill="#cccccc" stroke="#666666" pointer-events="none"/><ellipse cx="120" cy="117.67" rx="10" ry="10" fill="#000000" stroke="#000000" transform="translate(2,3)" opacity="0.25"/><ellipse cx="120" cy="117.67" rx="10" ry="10" fill="#cccccc" stroke="#666666" pointer-events="none"/><ellipse cx="60" cy="64.67" rx="10" ry="10" fill="#000000" stroke="#000000" transform="translate(2,3)" opacity="0.25"/><ellipse cx="60" cy="64.67" rx="10" ry="10" fill="#cccccc" stroke="#666666" pointer-events="none"/><ellipse cx="100" cy="51.67" rx="10" ry="10" fill="#000000" stroke="#000000" transform="translate(2,3)" opacity="0.25"/><ellipse cx="100" cy="51.67" rx="10" ry="10" fill="#cccccc" stroke="#666666" pointer-events="none"/><ellipse cx="229" cy="41.67" rx="10" ry="10" fill="#000000" stroke="#000000" transform="translate(2,3)" opacity="0.25"/><ellipse cx="229" cy="41.67" rx="10" ry="10" fill="#cccccc" stroke="#666666" pointer-events="none"/><ellipse cx="50" cy="143.67" rx="10" ry="10" fill="#000000" stroke="#000000" transform="translate(2,3)" opacity="0.25"/><ellipse cx="50" cy="143.67" rx="10" ry="10" fill="#cccccc" stroke="#666666" pointer-events="none"/><ellipse cx="369" cy="34.67" rx="10" ry="10" fill="#000000" stroke="#000000" transform="translate(2,3)" opacity="0.25"/><ellipse cx="369" cy="34.67" rx="10" ry="10" fill="#cccccc" stroke="#666666" pointer-events="none"/><ellipse cx="110" cy="232.67" rx="10" ry="10" fill="#000000" stroke="#000000" transform="translate(2,3)" opacity="0.25"/><ellipse cx="110" cy="232.67" rx="10" ry="10" fill="#cccccc" stroke="#666666" pointer-events="none"/><ellipse cx="40" cy="77.67" rx="10" ry="10" fill="#000000" stroke="#000000" transform="translate(2,3)" opacity="0.25"/><ellipse cx="40" cy="77.67" rx="10" ry="10" fill="#cccccc" stroke="#666666" pointer-events="none"/></g></svg>