<?xml version="1.0" encoding="UTF-8"?>
<!DOCTYPE svg PUBLIC "-//W3C//DTD SVG 1.1//EN" "http://www.w3.org/Graphics/SVG/1.1/DTD/svg11.dtd">
<svg xmlns="http://www.w3.org/2000/svg" style="background-color: rgb(255, 255, 255);" xmlns:xlink="http://www.w3.org/1999/xlink" version="1.1" width="781px" height="542px" viewBox="-0.5 -0.5 781 542"><defs/><g><rect x="-0.33" y="0" width="780" height="540" fill="#ffffff" stroke="none" pointer-events="none"/><ellipse cx="643.17" cy="300" rx="10" ry="10" fill="#000000" stroke="#000000" transform="translate(2,3)" opacity="0.25"/><ellipse cx="643.17" cy="300" rx="10" ry="10" fill="#f8cecc" stroke="#b85450" pointer-events="none"/><ellipse cx="163.17" cy="350" rx="10" ry="10" fill="#000000" stroke="#000000" transform="translate(2,3)" opacity="0.25"/><ellipse cx="163.17" cy="350" rx="10" ry="10" fill="#d5e8d4" stroke="#82b366" pointer-events="none"/><ellipse cx="576.67" cy="50" rx="10" ry="10" fill="#000000" stroke="#000000" transform="translate(2,3)" opacity="0.25"/><ellipse cx="576.67" cy="50" rx="10" ry="10" fill="#dae8fc" stroke="#6c8ebf" pointer-events="none"/><ellipse cx="373.17" cy="490" rx="10" ry="10" fill="#000000" stroke="#000000" transform="translate(2,3)" opacity="0.25"/><ellipse cx="373.17" cy="490" rx="10" ry="10" fill="#fff2cc" stroke="#d6b656" pointer-events="none"/><ellipse cx="173.17" cy="40" rx="10" ry="10" fill="#000000" stroke="#000000" transform="translate(2,3)" opacity="0.25"/><ellipse cx="173.17" cy="40" rx="10" ry="10" fill="#ffe6cc" stroke="#d79b00" pointer-events="none"/><ellipse cx="553.17" cy="300" rx="10" ry="10" fill="#000000" stroke="#000000" transform="translate(2,3)" opacity="0.25"/><ellipse cx="553.17" cy="300" rx="10" ry="10" fill="#f8cecc" stroke="#b85450" pointer-events="none"/><ellipse cx="123.17" cy="300" rx="10" ry="10" fill="#000000" stroke="#000000" transform="translate(2,3)" opacity="0.25"/><ellipse cx="123.17" cy="300" rx="10" ry="10" fill="#d5e8d4" stroke="#82b366" pointer-events="none"/><ellipse cx="543.17" cy="40" rx="10" ry="10" fill="#000000" stroke="#000000" transform="translate(2,3)" opacity="0.25"/><ellipse cx="543.17" cy="40" rx="10" ry="10" fill="#dae8fc" stroke="#6c8ebf" pointer-events="none"/><ellipse cx="303.17" cy="480" rx="10" ry="10" fill="#000000" stroke="#000000" transform="translate(2,3)" opacity="0.25"/><ellipse cx="303.17" cy="480" rx="10" ry="10" fill="#fff2cc" stroke="#d6b656" pointer-events="none"/><ellipse cx="163.17" cy="80" rx="10" ry="10" fill="#000000" stroke="#000000" transform="translate(2,3)" opacity="0.25"/><ellipse cx="163.17" cy="80" rx="10" ry="10" fill="#ffe6cc" stroke="#d79b00" pointer-events="none"/><ellipse cx="583.17" cy="250" rx="10" ry="10" fill="#000000" stroke="#000000" transform="translate(2,3)" opacity="0.25"/><ellipse cx="583.17" cy="250" rx="10" ry="10" fill="#f8cecc" stroke="#b85450" pointer-events="none"/><ellipse cx="243.17" cy="366" rx="10" ry="10" fill="#000000" stroke="#000000" transform="translate(2,3)" opacity="0.25"/><ellipse cx="243.17" cy="366" rx="10" ry="10" fill="#d5e8d4" stroke="#82b366" pointer-events="none"/><ellipse cx="566.67" cy="199" rx="10" ry="10" fill="#000000" stroke="#000000" transform="translate(2,3)" opacity="0.25"/><ellipse cx="566.67" cy="199" rx="10" ry="10" fill="#dae8fc" stroke="#6c8ebf" pointer-events="none"/><ellipse cx="393.17" cy="420" rx="10" ry="10" fill="#000000" stroke="#000000" transform="translate(2,3)" opacity="0.25"/><ellipse cx="393.17" cy="420" rx="10" ry="10" fill="#fff2cc" stroke="#d6b656" pointer-events="none"/><ellipse cx="223.17" cy="70" rx="10" ry="10" fill="#000000" stroke="#000000" transform="translate(2,3)" opacity="0.25"/><ellipse cx="223.17" cy="70" rx="10" ry="10" fill="#ffe6cc" stroke="#d79b00" pointer-events="none"/><ellipse cx="583.17" cy="290" rx="10" ry="10" fill="#000000" stroke="#000000" transform="translate(2,3)" opacity="0.25"/><ellipse cx="583.17" cy="290" rx="10" ry="10" fill="#f8cecc" stroke="#b85450" pointer-events="none"/><ellipse cx="193.17" cy="340" rx="10" ry="10" fill="#000000" stroke="#000000" transform="translate(2,3)" opacity="0.25"/><ellipse cx="193.17" cy="340" rx="10" ry="10" fill="#d5e8d4" stroke="#82b366" pointer-events="none"/><ellipse cx="646.67" cy="160" rx="10" ry="10" fill="#000000" stroke="#000000" transform="translate(2,3)" opacity="0.25"/><ellipse cx="646.67" cy="160" rx="10" ry="10" fill="#dae8fc" stroke="#6c8ebf" pointer-events="none"/><ellipse cx="423.17" cy="410" rx="10" ry="10" fill="#000000" stroke="#000000" transform="translate(2,3)" opacity="0.25"/><ellipse cx="423.17" cy="410" rx="10" ry="10" fill="#fff2cc" stroke="#d6b656" pointer-events="none"/><ellipse cx="253.17" cy="70" rx="10" ry="10" fill="#000000" stroke="#000000" transform="translate(2,3)" opacity="0.25"/><ellipse cx="253.17" cy="70" rx="10" ry="10" fill="#ffe6cc" stroke="#d79b00" pointer-events="none"/><ellipse cx="593.17" cy="350" rx="10" ry="10" fill="#000000" stroke="#000000" transform="translate(2,3)" opacity="0.25"/><ellipse cx="593.17" cy="350" rx="10" ry="10" fill="#f8cecc" stroke="#b85450" pointer-events="none"/><ellipse cx="43.17" cy="360" rx="10" ry="10" fill="#000000" stroke="#000000" transform="translate(2,3)" opacity="0.25"/><ellipse cx="43.17" cy="360" rx="10" ry="10" fill="#d5e8d4" stroke="#82b366" pointer-events="none"/><ellipse cx="496.67" cy="185" rx="10" ry="10" fill="#000000" stroke="#000000" transform="translate(2,3)" opacity="0.25"/><ellipse cx="496.67" cy="185" rx="10" ry="10" fill="#dae8fc" stroke="#6c8ebf" pointer-events="none"/><ellipse cx="412.17" cy="467" rx="10" ry="10" fill="#000000" stroke="#000000" transform="translate(2,3)" opacity="0.25"/><ellipse cx="412.17" cy="467" rx="10" ry="10" fill="#fff2cc" stroke="#d6b656" pointer-events="none"/><ellipse cx="203.17" cy="40" rx="10" ry="10" fill="#000000" stroke="#000000" transform="translate(2,3)" opacity="0.25"/><ellipse cx="203.17" cy="40" rx="10" ry="10" fill="#ffe6cc" stroke="#d79b00" pointer-events="none"/><ellipse cx="653.17" cy="370" rx="10" ry="10" fill="#000000" stroke="#000000" transform="translate(2,3)" opacity="0.25"/><ellipse cx="653.17" cy="370" rx="10" ry="10" fill="#f8cecc" stroke="#b85450" pointer-events="none"/><ellipse cx="83.17" cy="360" rx="10" ry="10" fill="#000000" stroke="#000000" transform="translate(2,3)" opacity="0.25"/><ellipse cx="83.17" cy="360" rx="10" ry="10" fill="#d5e8d4" stroke="#82b366" pointer-events="none"/><ellipse cx="526.67" cy="189" rx="10" ry="10" fill="#000000" stroke="#000000" transform="translate(2,3)" opacity="0.25"/><ellipse cx="526.67" cy="189" rx="10" ry="10" fill="#dae8fc" stroke="#6c8ebf" pointer-events="none"/><ellipse cx="353.17" cy="460" rx="10" ry="10" fill="#000000" stroke="#000000" transform="translate(2,3)" opacity="0.25"/><ellipse cx="353.17" cy="460" rx="10" ry="10" fill="#fff2cc" stroke="#d6b656" pointer-events="none"/><ellipse cx="193.17" cy="100" rx="10" ry="10" fill="#000000" stroke="#000000" transform="translate(2,3)" opacity="0.25"/><ellipse cx="193.17" cy="100" rx="10" ry="10" fill="#ffe6cc" stroke="#d79b00" pointer-events="none"/><ellipse cx="623.17" cy="320" rx="10" ry="10" fill="#000000" stroke="#000000" transform="translate(2,3)" opacity="0.25"/><ellipse cx="623.17" cy="320" rx="10" ry="10" fill="#f8cecc" stroke="#b85450" pointer-events="none"/><ellipse cx="23.17" cy="320" rx="10" ry="10" fill="#000000" stroke="#000000" transform="translate(2,3)" opacity="0.25"/><ellipse cx="23.17" cy="320" rx="10" ry="10" fill="#d5e8d4" stroke="#82b366" pointer-events="none"/><ellipse cx="586.67" cy="90" rx="10" ry="10" fill="#000000" stroke="#000000" transform="translate(2,3)" opacity="0.25"/><ellipse cx="586.67" cy="90" rx="10" ry="10" fill="#dae8fc" stroke="#6c8ebf" pointer-events="none"/><ellipse cx="383.17" cy="450" rx="10" ry="10" fill="#000000" stroke="#000000" transform="translate(2,3)" opacity="0.25"/><ellipse cx="383.17" cy="450" rx="10" ry="10" fill="#fff2cc" stroke="#d6b656" pointer-events="none"/><ellipse cx="313.17" cy="110" rx="10" ry="10" fill="#000000" stroke="#000000" transform="translate(2,3)" opacity="0.25"/><ellipse cx="313.17" cy="110" rx="10" ry="10" fill="#ffe6cc" stroke="#d79b00" pointer-events="none"/><ellipse cx="593.17" cy="320" rx="10" ry="10" fill="#000000" stroke="#000000" transform="translate(2,3)" opacity="0.25"/><ellipse cx="593.17" cy="320" rx="10" ry="10" fill="#f8cecc" stroke="#b85450" pointer-events="none"/><ellipse cx="63.17" cy="330" rx="10" ry="10" fill="#000000" stroke="#000000" transform="translate(2,3)" opacity="0.25"/><ellipse cx="63.17" cy="330" rx="10" ry="10" fill="#d5e8d4" stroke="#82b366" pointer-events="none"/><ellipse cx="483.17" cy="93" rx="10" ry="10" fill="#000000" stroke="#000000" transform="translate(2,3)" opacity="0.25"/><ellipse cx="483.17" cy="93" rx="10" ry="10" fill="#dae8fc" stroke="#6c8ebf" pointer-events="none"/><ellipse cx="403.17" cy="370" rx="10" ry="10" fill="#000000" stroke="#000000" transform="translate(2,3)" opacity="0.25"/><ellipse cx="403.17" cy="370" rx="10" ry="10" fill="#fff2cc" stroke="#d6b656" pointer-events="none"/><ellipse cx="183.17" cy="80" rx="10" ry="10" fill="#000000" stroke="#000000" transform="translate(2,3)" opacity="0.25"/><ellipse cx="183.17" cy="80" rx="10" ry="10" fill="#ffe6cc" stroke="#d79b00" pointer-events="none"/><ellipse cx="93.17" cy="380" rx="10" ry="10" fill="#000000" stroke="#000000" transform="translate(2,3)rotate(180,93.17,380)" opacity="0.25"/><ellipse cx="93.17" cy="380" rx="10" ry="10" fill="#d5e8d4" stroke="#82b366" transform="rotate(180,93.17,380)" pointer-events="none"/><ellipse cx="603.17" cy="290" rx="10" ry="10" fill="#000000" stroke="#000000" transform="translate(2,3)rotate(180,603.17,290)" opacity="0.25"/><ellipse cx="603.17" cy="290" rx="10" ry="10" fill="#f8cecc" stroke="#b85450" transform="rotate(180,603.17,290)" pointer-events="none"/><ellipse cx="103.17" cy="310" rx="10" ry="10" fill="#000000" stroke="#000000" transform="translate(2,3)rotate(180,103.17,310)" opacity="0.25"/><ellipse cx="103.17" cy="310" rx="10" ry="10" fill="#d5e8d4" stroke="#82b366" transform="rotate(180,103.17,310)" pointer-events="none"/><ellipse cx="566.67" cy="140" rx="10" ry="10" fill="#000000" stroke="#000000" transform="translate(2,3)rotate(180,566.67,140)" opacity="0.25"/><ellipse cx="566.67" cy="140" rx="10" ry="10" fill="#dae8fc" stroke="#6c8ebf" transform="rotate(180,566.67,140)" pointer-events="none"/><ellipse cx="433.17" cy="430" rx="10" ry="10" fill="#000000" stroke="#000000" transform="translate(2,3)rotate(180,433.17,430)" opacity="0.25"/><ellipse cx="433.17" cy="430" rx="10" ry="10" fill="#fff2cc" stroke="#d6b656" transform="rotate(180,433.17,430)" pointer-events="none"/><ellipse cx="333.17" cy="90" rx="10" ry="10" fill="#000000" stroke="#000000" transform="translate(2,3)rotate(180,333.17,90)" opacity="0.25"/><ellipse cx="333.17" cy="90" rx="10" ry="10" fill="#ffe6cc" stroke="#d79b00" transform="rotate(180,333.17,90)" pointer-events="none"/><ellipse cx="657.67" cy="310" rx="10" ry="10" fill="#000000" stroke="#000000" transform="translate(2,3)rotate(180,657.67,310)" opacity="0.25"/><ellipse cx="657.67" cy="310" rx="10" ry="10" fill="#f8cecc" stroke="#b85450" transform="rotate(180,657.67,310)" pointer-events="none"/><ellipse cx="133.17" cy="382" rx="10" ry="10" fill="#000000" stroke="#000000" transform="translate(2,3)rotate(180,133.17,382)" opacity="0.25"/><ellipse cx="133.17" cy="382" rx="10" ry="10" fill="#d5e8d4" stroke="#82b366" transform="rotate(180,133.17,382)" pointer-events="none"/><ellipse cx="496.67" cy="140" rx="10" ry="10" fill="#000000" stroke="#000000" transform="translate(2,3)rotate(180,496.67,140)" opacity="0.25"/><ellipse cx="496.67" cy="140" rx="10" ry="10" fill="#dae8fc" stroke="#6c8ebf" transform="rotate(180,496.67,140)" pointer-events="none"/><ellipse cx="483.17" cy="400" rx="10" ry="10" fill="#000000" stroke="#000000" transform="translate(2,3)rotate(180,483.17,400)" opacity="0.25"/><ellipse cx="483.17" cy="400" rx="10" ry="10" fill="#fff2cc" stroke="#d6b656" transform="rotate(180,483.17,400)" pointer-events="none"/><ellipse cx="113.17" cy="370" rx="10" ry="10" fill="#000000" stroke="#000000" transform="translate(2,3)rotate(180,113.17,370)" opacity="0.25"/><ellipse cx="113.17" cy="370" rx="10" ry="10" fill="#d5e8d4" stroke="#82b366" transform="rotate(180,113.17,370)" pointer-events="none"/><ellipse cx="443.17" cy="463" rx="10" ry="10" fill="#000000" stroke="#000000" transform="translate(2,3)rotate(180,443.17,463)" opacity="0.25"/><ellipse cx="443.17" cy="463" rx="10" ry="10" fill="#fff2cc" stroke="#d6b656" transform="rotate(180,443.17,463)" pointer-events="none"/><ellipse cx="253.17" cy="130" rx="10" ry="10" fill="#000000" stroke="#000000" transform="translate(2,3)rotate(180,253.17,130)" opacity="0.25"/><ellipse cx="253.17" cy="130" rx="10" ry="10" fill="#ffe6cc" stroke="#d79b00" transform="rotate(180,253.17,130)" pointer-events="none"/><ellipse cx="633.17" cy="360" rx="10" ry="10" fill="#000000" stroke="#000000" transform="translate(2,3)rotate(180,633.17,360)" opacity="0.25"/><ellipse cx="633.17" cy="360" rx="10" ry="10" fill="#f8cecc" stroke="#b85450" transform="rotate(180,633.17,360)" pointer-events="none"/><ellipse cx="193.17" cy="310" rx="10" ry="10" fill="#000000" stroke="#000000" transform="translate(2,3)rotate(180,193.17,310)" opacity="0.25"/><ellipse cx="193.17" cy="310" rx="10" ry="10" fill="#d5e8d4" stroke="#82b366" transform="rotate(180,193.17,310)" pointer-events="none"/><ellipse cx="512.17" cy="90" rx="10" ry="10" fill="#000000" stroke="#000000" transform="translate(2,3)rotate(180,512.17,90)" opacity="0.25"/><ellipse cx="512.17" cy="90" rx="10" ry="10" fill="#dae8fc" stroke="#6c8ebf" transform="rotate(180,512.17,90)" pointer-events="none"/><ellipse cx="283.17" cy="99" rx="10" ry="10" fill="#000000" stroke="#000000" transform="translate(2,3)rotate(180,283.17,99)" opacity="0.25"/><ellipse cx="283.17" cy="99" rx="10" ry="10" fill="#ffe6cc" stroke="#d79b00" transform="rotate(180,283.17,99)" pointer-events="none"/><ellipse cx="113.17" cy="340" rx="10" ry="10" fill="#000000" stroke="#000000" transform="translate(2,3)rotate(180,113.17,340)" opacity="0.25"/><ellipse cx="113.17" cy="340" rx="10" ry="10" fill="#d5e8d4" stroke="#82b366" transform="rotate(180,113.17,340)" pointer-events="none"/><ellipse cx="626.67" cy="140" rx="10" ry="10" fill="#000000" stroke="#000000" transform="translate(2,3)rotate(180,626.67,140)" opacity="0.25"/><ellipse cx="626.67" cy="140" rx="10" ry="10" fill="#dae8fc" stroke="#6c8ebf" transform="rotate(180,626.67,140)" pointer-events="none"/><ellipse cx="513.17" cy="450" rx="10" ry="10" fill="#000000" stroke="#000000" transform="translate(2,3)rotate(180,513.17,450)" opacity="0.25"/><ellipse cx="513.17" cy="450" rx="10" ry="10" fill="#fff2cc" stroke="#d6b656" transform="rotate(180,513.17,450)" pointer-events="none"/><ellipse cx="323.17" cy="40" rx="10" ry="10" fill="#000000" stroke="#000000" transform="translate(2,3)rotate(180,323.17,40)" opacity="0.25"/><ellipse cx="323.17" cy="40" rx="10" ry="10" fill="#ffe6cc" stroke="#d79b00" transform="rotate(180,323.17,40)" pointer-events="none"/><ellipse cx="139.67" cy="45" rx="10" ry="10" fill="#000000" stroke="#000000" transform="translate(2,3)" opacity="0.25"/><ellipse cx="139.67" cy="45" rx="10" ry="10" fill="#ffe6cc" stroke="#d79b00" pointer-events="none"/><ellipse cx="513.17" cy="251" rx="10" ry="10" fill="#000000" stroke="#000000" transform="translate(2,3)" opacity="0.25"/><ellipse cx="513.17" cy="251" rx="10" ry="10" fill="#f8cecc" stroke="#b85450" pointer-events="none"/><ellipse cx="556.67" cy="81" rx="10" ry="10" fill="#000000" stroke="#000000" transform="translate(2,3)" opacity="0.25"/><ellipse cx="556.67" cy="81" rx="10" ry="10" fill="#dae8fc" stroke="#6c8ebf" pointer-events="none"/><ellipse cx="363.17" cy="390" rx="10" ry="10" fill="#000000" stroke="#000000" transform="translate(2,3)" opacity="0.25"/><ellipse cx="363.17" cy="390" rx="10" ry="10" fill="#fff2cc" stroke="#d6b656" pointer-events="none"/><ellipse cx="553.17" cy="271" rx="10" ry="10" fill="#000000" stroke="#000000" transform="translate(2,3)" opacity="0.25"/><ellipse cx="553.17" cy="271" rx="10" ry="10" fill="#f8cecc" stroke="#b85450" pointer-events="none"/><ellipse cx="523.17" cy="320" rx="10" ry="10" fill="#000000" stroke="#000000" transform="translate(2,3)" opacity="0.25"/><ellipse cx="523.17" cy="320" rx="10" ry="10" fill="#f8cecc" stroke="#b85450" pointer-events="none"/><ellipse cx="33.17" cy="290" rx="10" ry="10" fill="#000000" stroke="#000000" transform="translate(2,3)" opacity="0.25"/><ellipse cx="33.17" cy="290" rx="10" ry="10" fill="#d5e8d4" stroke="#82b366" pointer-events="none"/><ellipse cx="546.67" cy="110" rx="10" ry="10" fill="#000000" stroke="#000000" transform="translate(2,3)" opacity="0.25"/><ellipse cx="546.67" cy="110" rx="10" ry="10" fill="#dae8fc" stroke="#6c8ebf" pointer-events="none"/><ellipse cx="333.17" cy="460" rx="10" ry="10" fill="#000000" stroke="#000000" transform="translate(2,3)" opacity="0.25"/><ellipse cx="333.17" cy="460" rx="10" ry="10" fill="#fff2cc" stroke="#d6b656" pointer-events="none"/><ellipse cx="143.17" cy="20" rx="10" ry="10" fill="#000000" stroke="#000000" transform="translate(2,3)" opacity="0.25"/><ellipse cx="143.17" cy="20" rx="10" ry="10" fill="#ffe6cc" stroke="#d79b00" pointer-events="none"/></g></svg>