<?xml version="1.0" encoding="UTF-8"?>
<!DOCTYPE svg PUBLIC "-//W3C//DTD SVG 1.1//EN" "http://www.w3.org/Graphics/SVG/1.1/DTD/svg11.dtd">
<svg xmlns="http://www.w3.org/2000/svg" style="background-color: rgb(255, 255, 255);" xmlns:xlink="http://www.w3.org/1999/xlink" version="1.1" width="528px" height="540px" viewBox="-0.5 -0.5 528 540"><defs/><g><path d="M 387.5 64 L 525 130.02 L 525 322.98 L 387.5 389 L 250 322.98 L 250 130.02 Z" fill="#000000" stroke="#000000" stroke-miterlimit="10" transform="translate(2,3)" opacity="0.25"/><path d="M 387.5 64 L 525 130.02 L 525 322.98 L 387.5 389 L 250 322.98 L 250 130.02 Z" fill="#dae8fc" stroke="#6c8ebf" stroke-miterlimit="10" pointer-events="none"/><path d="M 387.5 196.04 L 525 130.02 L 525 322.98 L 387.5 389 Z" fill-opacity="0.2" fill="#000000" stroke="none" pointer-events="none"/><path d="M 387.5 196.04 L 250 130.02 L 250 322.98 L 387.5 389 Z" fill-opacity="0.2" fill="#ffffff" stroke="none" pointer-events="none"/><path d="M 137.5 210 L 275 276.02 L 275 468.98 L 137.5 535 L 0 468.98 L 0 276.02 Z" fill="#000000" stroke="#000000" stroke-miterlimit="10" transform="translate(2,3)" opacity="0.25"/><path d="M 137.5 210 L 275 276.02 L 275 468.98 L 137.5 535 L 0 468.98 L 0 276.02 Z" fill="#ffe6cc" stroke="#d79b00" stroke-miterlimit="10" pointer-events="none"/><path d="M 137.5 342.04 L 275 276.02 L 275 468.98 L 137.5 535 Z" fill-opacity="0.2" fill="#000000" stroke="none" pointer-events="none"/><path d="M 137.5 342.04 L 0 276.02 L 0 468.98 L 137.5 535 Z" fill-opacity="0.2" fill="#ffffff" stroke="none" pointer-events="none"/><path d="M 344.35 168 L 275.5 168 Q 265.5 168 271.37 159.9 L 345.93 57.1 Q 351.8 49 361.8 49 L 499.5 49 Q 509.5 49 503.63 57.1 L 429.07 159.9 Q 423.2 168 413.2 168 Z" fill-opacity="0.8" fill="#000000" stroke="#000000" stroke-opacity="0.8" stroke-miterlimit="10" transform="translate(2,3)rotate(27,387.5,108.5)" opacity="0.25"/><path d="M 344.35 168 L 275.5 168 Q 265.5 168 271.37 159.9 L 345.93 57.1 Q 351.8 49 361.8 49 L 499.5 49 Q 509.5 49 503.63 57.1 L 429.07 159.9 Q 423.2 168 413.2 168 Z" fill-opacity="0.8" fill="#dae8fc" stroke="#6c8ebf" stroke-opacity="0.8" stroke-miterlimit="10" transform="rotate(27,387.5,108.5)" pointer-events="none"/><path d="M 94.35 314.5 L 25.5 314.5 Q 15.5 314.5 21.37 306.4 L 95.93 203.6 Q 101.8 195.5 111.8 195.5 L 249.5 195.5 Q 259.5 195.5 253.63 203.6 L 179.07 306.4 Q 173.2 314.5 163.2 314.5 Z" fill-opacity="0.8" fill="#000000" stroke="#000000" stroke-opacity="0.8" stroke-miterlimit="10" transform="translate(2,3)rotate(27,137.5,255)" opacity="0.25"/><path d="M 94.35 314.5 L 25.5 314.5 Q 15.5 314.5 21.37 306.4 L 95.93 203.6 Q 101.8 195.5 111.8 195.5 L 249.5 195.5 Q 259.5 195.5 253.63 203.6 L 179.07 306.4 Q 173.2 314.5 163.2 314.5 Z" fill-opacity="0.8" fill="#ffe6cc" stroke="#d79b00" stroke-opacity="0.8" stroke-miterlimit="10" transform="rotate(27,137.5,255)" pointer-events="none"/><path d="M 115 223 L 125.5 223 L 110 242 L 94.5 223 L 105 223 L 105 180.64 Q 105 174.36 110.64 171.63 L 349.78 55.91 Q 363.87 49.09 364.13 64.74 L 364.99 116.42 L 354.99 116.58 L 354.13 64.91 L 115 180.64 Z" fill="#6d8764" stroke="#3a5431" stroke-linejoin="round" stroke-miterlimit="10" pointer-events="none"/><path d="M 115 223 L 125.5 223 L 110 242 L 94.5 223 L 105 223" fill="none" stroke="#3a5431" stroke-linejoin="flat" stroke-miterlimit="4" pointer-events="none"/><path d="M 170 262 L 160 262 L 160 200.14 Q 160 193.86 165.66 191.13 L 404.66 75.95 Q 419 69.04 419 84.96 L 419 117.5 L 429.5 117.5 L 414 136.5 L 398.5 117.5 L 409 117.5 L 409 84.96 L 170 200.14 Z" fill="#e51400" stroke="#b20000" stroke-linejoin="round" stroke-miterlimit="10" pointer-events="none"/><path d="M 419 117.5 L 429.5 117.5 L 414 136.5 L 398.5 117.5 L 409 117.5" fill="none" stroke="#b20000" stroke-linejoin="flat" stroke-miterlimit="4" pointer-events="none"/></g></svg>