<?xml version="1.0" encoding="UTF-8"?>
<!DOCTYPE svg PUBLIC "-//W3C//DTD SVG 1.1//EN" "http://www.w3.org/Graphics/SVG/1.1/DTD/svg11.dtd">
<svg xmlns="http://www.w3.org/2000/svg" style="background-color: rgb(255, 255, 255);" xmlns:xlink="http://www.w3.org/1999/xlink" version="1.1" width="782px" height="541px" viewBox="-0.5 -0.5 782 541"><defs/><g><rect x="0.17" y="0.5" width="780" height="540" fill="#ffffff" stroke="none" pointer-events="none"/><rect x="80" y="10" width="290" height="150" rx="22.5" ry="22.5" fill="#ffe6cc" stroke="#d79b00" pointer-events="none"/><rect x="470" y="10" width="200" height="210" rx="30" ry="30" fill="#dae8fc" stroke="#6c8ebf" pointer-events="none"/><rect x="0" y="271" width="270" height="140" rx="21" ry="21" fill="#d5e8d4" stroke="#82b366" pointer-events="none"/><rect x="470" y="230" width="220" height="160" rx="24" ry="24" fill="#f8cecc" stroke="#b85450" pointer-events="none"/><rect x="280" y="330" width="180" height="190" rx="27" ry="27" fill="#fff2cc" stroke="#d6b656" pointer-events="none"/><ellipse cx="643.67" cy="300.5" rx="10" ry="10" fill="#000000" stroke="#000000" transform="translate(2,3)" opacity="0.25"/><ellipse cx="643.67" cy="300.5" rx="10" ry="10" fill="#f8cecc" stroke="#b85450" pointer-events="none"/><ellipse cx="163.67" cy="350.5" rx="10" ry="10" fill="#000000" stroke="#000000" transform="translate(2,3)" opacity="0.25"/><ellipse cx="163.67" cy="350.5" rx="10" ry="10" fill="#d5e8d4" stroke="#82b366" pointer-events="none"/><ellipse cx="577.17" cy="50.5" rx="10" ry="10" fill="#000000" stroke="#000000" transform="translate(2,3)" opacity="0.25"/><ellipse cx="577.17" cy="50.5" rx="10" ry="10" fill="#dae8fc" stroke="#6c8ebf" pointer-events="none"/><ellipse cx="373.67" cy="490.5" rx="10" ry="10" fill="#000000" stroke="#000000" transform="translate(2,3)" opacity="0.25"/><ellipse cx="373.67" cy="490.5" rx="10" ry="10" fill="#fff2cc" stroke="#d6b656" pointer-events="none"/><ellipse cx="173.67" cy="40.5" rx="10" ry="10" fill="#000000" stroke="#000000" transform="translate(2,3)" opacity="0.25"/><ellipse cx="173.67" cy="40.5" rx="10" ry="10" fill="#ffe6cc" stroke="#d79b00" pointer-events="none"/><ellipse cx="553.67" cy="300.5" rx="10" ry="10" fill="#000000" stroke="#000000" transform="translate(2,3)" opacity="0.25"/><ellipse cx="553.67" cy="300.5" rx="10" ry="10" fill="#f8cecc" stroke="#b85450" pointer-events="none"/><ellipse cx="123.67" cy="300.5" rx="10" ry="10" fill="#000000" stroke="#000000" transform="translate(2,3)" opacity="0.25"/><ellipse cx="123.67" cy="300.5" rx="10" ry="10" fill="#d5e8d4" stroke="#82b366" pointer-events="none"/><ellipse cx="543.67" cy="40.5" rx="10" ry="10" fill="#000000" stroke="#000000" transform="translate(2,3)" opacity="0.25"/><ellipse cx="543.67" cy="40.5" rx="10" ry="10" fill="#dae8fc" stroke="#6c8ebf" pointer-events="none"/><ellipse cx="303.67" cy="480.5" rx="10" ry="10" fill="#000000" stroke="#000000" transform="translate(2,3)" opacity="0.25"/><ellipse cx="303.67" cy="480.5" rx="10" ry="10" fill="#fff2cc" stroke="#d6b656" pointer-events="none"/><ellipse cx="163.67" cy="80.5" rx="10" ry="10" fill="#000000" stroke="#000000" transform="translate(2,3)" opacity="0.25"/><ellipse cx="163.67" cy="80.5" rx="10" ry="10" fill="#ffe6cc" stroke="#d79b00" pointer-events="none"/><ellipse cx="583.67" cy="250.5" rx="10" ry="10" fill="#000000" stroke="#000000" transform="translate(2,3)" opacity="0.25"/><ellipse cx="583.67" cy="250.5" rx="10" ry="10" fill="#f8cecc" stroke="#b85450" pointer-events="none"/><ellipse cx="243.67" cy="366.5" rx="10" ry="10" fill="#000000" stroke="#000000" transform="translate(2,3)" opacity="0.25"/><ellipse cx="243.67" cy="366.5" rx="10" ry="10" fill="#d5e8d4" stroke="#82b366" pointer-events="none"/><ellipse cx="567.17" cy="199.5" rx="10" ry="10" fill="#000000" stroke="#000000" transform="translate(2,3)" opacity="0.25"/><ellipse cx="567.17" cy="199.5" rx="10" ry="10" fill="#dae8fc" stroke="#6c8ebf" pointer-events="none"/><ellipse cx="393.67" cy="420.5" rx="10" ry="10" fill="#000000" stroke="#000000" transform="translate(2,3)" opacity="0.25"/><ellipse cx="393.67" cy="420.5" rx="10" ry="10" fill="#fff2cc" stroke="#d6b656" pointer-events="none"/><ellipse cx="223.67" cy="70.5" rx="10" ry="10" fill="#000000" stroke="#000000" transform="translate(2,3)" opacity="0.25"/><ellipse cx="223.67" cy="70.5" rx="10" ry="10" fill="#ffe6cc" stroke="#d79b00" pointer-events="none"/><ellipse cx="583.67" cy="290.5" rx="10" ry="10" fill="#000000" stroke="#000000" transform="translate(2,3)" opacity="0.25"/><ellipse cx="583.67" cy="290.5" rx="10" ry="10" fill="#f8cecc" stroke="#b85450" pointer-events="none"/><ellipse cx="193.67" cy="340.5" rx="10" ry="10" fill="#000000" stroke="#000000" transform="translate(2,3)" opacity="0.25"/><ellipse cx="193.67" cy="340.5" rx="10" ry="10" fill="#d5e8d4" stroke="#82b366" pointer-events="none"/><ellipse cx="647.17" cy="160.5" rx="10" ry="10" fill="#000000" stroke="#000000" transform="translate(2,3)" opacity="0.25"/><ellipse cx="647.17" cy="160.5" rx="10" ry="10" fill="#dae8fc" stroke="#6c8ebf" pointer-events="none"/><ellipse cx="423.67" cy="410.5" rx="10" ry="10" fill="#000000" stroke="#000000" transform="translate(2,3)" opacity="0.25"/><ellipse cx="423.67" cy="410.5" rx="10" ry="10" fill="#fff2cc" stroke="#d6b656" pointer-events="none"/><ellipse cx="253.67" cy="70.5" rx="10" ry="10" fill="#000000" stroke="#000000" transform="translate(2,3)" opacity="0.25"/><ellipse cx="253.67" cy="70.5" rx="10" ry="10" fill="#ffe6cc" stroke="#d79b00" pointer-events="none"/><ellipse cx="593.67" cy="350.5" rx="10" ry="10" fill="#000000" stroke="#000000" transform="translate(2,3)" opacity="0.25"/><ellipse cx="593.67" cy="350.5" rx="10" ry="10" fill="#f8cecc" stroke="#b85450" pointer-events="none"/><ellipse cx="43.67" cy="360.5" rx="10" ry="10" fill="#000000" stroke="#000000" transform="translate(2,3)" opacity="0.25"/><ellipse cx="43.67" cy="360.5" rx="10" ry="10" fill="#d5e8d4" stroke="#82b366" pointer-events="none"/><ellipse cx="497.17" cy="185.5" rx="10" ry="10" fill="#000000" stroke="#000000" transform="translate(2,3)" opacity="0.25"/><ellipse cx="497.17" cy="185.5" rx="10" ry="10" fill="#dae8fc" stroke="#6c8ebf" pointer-events="none"/><ellipse cx="412.67" cy="467.5" rx="10" ry="10" fill="#000000" stroke="#000000" transform="translate(2,3)" opacity="0.25"/><ellipse cx="412.67" cy="467.5" rx="10" ry="10" fill="#fff2cc" stroke="#d6b656" pointer-events="none"/><ellipse cx="203.67" cy="40.5" rx="10" ry="10" fill="#000000" stroke="#000000" transform="translate(2,3)" opacity="0.25"/><ellipse cx="203.67" cy="40.5" rx="10" ry="10" fill="#ffe6cc" stroke="#d79b00" pointer-events="none"/><ellipse cx="653.67" cy="370.5" rx="10" ry="10" fill="#000000" stroke="#000000" transform="translate(2,3)" opacity="0.25"/><ellipse cx="653.67" cy="370.5" rx="10" ry="10" fill="#f8cecc" stroke="#b85450" pointer-events="none"/><ellipse cx="83.67" cy="360.5" rx="10" ry="10" fill="#000000" stroke="#000000" transform="translate(2,3)" opacity="0.25"/><ellipse cx="83.67" cy="360.5" rx="10" ry="10" fill="#d5e8d4" stroke="#82b366" pointer-events="none"/><ellipse cx="527.17" cy="189.5" rx="10" ry="10" fill="#000000" stroke="#000000" transform="translate(2,3)" opacity="0.25"/><ellipse cx="527.17" cy="189.5" rx="10" ry="10" fill="#dae8fc" stroke="#6c8ebf" pointer-events="none"/><ellipse cx="353.67" cy="460.5" rx="10" ry="10" fill="#000000" stroke="#000000" transform="translate(2,3)" opacity="0.25"/><ellipse cx="353.67" cy="460.5" rx="10" ry="10" fill="#fff2cc" stroke="#d6b656" pointer-events="none"/><ellipse cx="193.67" cy="100.5" rx="10" ry="10" fill="#000000" stroke="#000000" transform="translate(2,3)" opacity="0.25"/><ellipse cx="193.67" cy="100.5" rx="10" ry="10" fill="#ffe6cc" stroke="#d79b00" pointer-events="none"/><ellipse cx="623.67" cy="320.5" rx="10" ry="10" fill="#000000" stroke="#000000" transform="translate(2,3)" opacity="0.25"/><ellipse cx="623.67" cy="320.5" rx="10" ry="10" fill="#f8cecc" stroke="#b85450" pointer-events="none"/><ellipse cx="23.67" cy="320.5" rx="10" ry="10" fill="#000000" stroke="#000000" transform="translate(2,3)" opacity="0.25"/><ellipse cx="23.67" cy="320.5" rx="10" ry="10" fill="#d5e8d4" stroke="#82b366" pointer-events="none"/><ellipse cx="587.17" cy="90.5" rx="10" ry="10" fill="#000000" stroke="#000000" transform="translate(2,3)" opacity="0.25"/><ellipse cx="587.17" cy="90.5" rx="10" ry="10" fill="#dae8fc" stroke="#6c8ebf" pointer-events="none"/><ellipse cx="383.67" cy="450.5" rx="10" ry="10" fill="#000000" stroke="#000000" transform="translate(2,3)" opacity="0.25"/><ellipse cx="383.67" cy="450.5" rx="10" ry="10" fill="#fff2cc" stroke="#d6b656" pointer-events="none"/><ellipse cx="313.67" cy="110.5" rx="10" ry="10" fill="#000000" stroke="#000000" transform="translate(2,3)" opacity="0.25"/><ellipse cx="313.67" cy="110.5" rx="10" ry="10" fill="#ffe6cc" stroke="#d79b00" pointer-events="none"/><ellipse cx="593.67" cy="320.5" rx="10" ry="10" fill="#000000" stroke="#000000" transform="translate(2,3)" opacity="0.25"/><ellipse cx="593.67" cy="320.5" rx="10" ry="10" fill="#f8cecc" stroke="#b85450" pointer-events="none"/><ellipse cx="63.67" cy="330.5" rx="10" ry="10" fill="#000000" stroke="#000000" transform="translate(2,3)" opacity="0.25"/><ellipse cx="63.67" cy="330.5" rx="10" ry="10" fill="#d5e8d4" stroke="#82b366" pointer-events="none"/><ellipse cx="483.67" cy="93.5" rx="10" ry="10" fill="#000000" stroke="#000000" transform="translate(2,3)" opacity="0.25"/><ellipse cx="483.67" cy="93.5" rx="10" ry="10" fill="#dae8fc" stroke="#6c8ebf" pointer-events="none"/><ellipse cx="403.67" cy="370.5" rx="10" ry="10" fill="#000000" stroke="#000000" transform="translate(2,3)" opacity="0.25"/><ellipse cx="403.67" cy="370.5" rx="10" ry="10" fill="#fff2cc" stroke="#d6b656" pointer-events="none"/><ellipse cx="183.67" cy="80.5" rx="10" ry="10" fill="#000000" stroke="#000000" transform="translate(2,3)" opacity="0.25"/><ellipse cx="183.67" cy="80.5" rx="10" ry="10" fill="#ffe6cc" stroke="#d79b00" pointer-events="none"/><ellipse cx="93.67" cy="380.5" rx="10" ry="10" fill="#000000" stroke="#000000" transform="translate(2,3)rotate(180,93.67,380.5)" opacity="0.25"/><ellipse cx="93.67" cy="380.5" rx="10" ry="10" fill="#d5e8d4" stroke="#82b366" transform="rotate(180,93.67,380.5)" pointer-events="none"/><ellipse cx="603.67" cy="290.5" rx="10" ry="10" fill="#000000" stroke="#000000" transform="translate(2,3)rotate(180,603.67,290.5)" opacity="0.25"/><ellipse cx="603.67" cy="290.5" rx="10" ry="10" fill="#f8cecc" stroke="#b85450" transform="rotate(180,603.67,290.5)" pointer-events="none"/><ellipse cx="103.67" cy="310.5" rx="10" ry="10" fill="#000000" stroke="#000000" transform="translate(2,3)rotate(180,103.67,310.5)" opacity="0.25"/><ellipse cx="103.67" cy="310.5" rx="10" ry="10" fill="#d5e8d4" stroke="#82b366" transform="rotate(180,103.67,310.5)" pointer-events="none"/><ellipse cx="567.17" cy="140.5" rx="10" ry="10" fill="#000000" stroke="#000000" transform="translate(2,3)rotate(180,567.17,140.5)" opacity="0.25"/><ellipse cx="567.17" cy="140.5" rx="10" ry="10" fill="#dae8fc" stroke="#6c8ebf" transform="rotate(180,567.17,140.5)" pointer-events="none"/><ellipse cx="433.67" cy="430.5" rx="10" ry="10" fill="#000000" stroke="#000000" transform="translate(2,3)rotate(180,433.67,430.5)" opacity="0.25"/><ellipse cx="433.67" cy="430.5" rx="10" ry="10" fill="#fff2cc" stroke="#d6b656" transform="rotate(180,433.67,430.5)" pointer-events="none"/><ellipse cx="333.67" cy="90.5" rx="10" ry="10" fill="#000000" stroke="#000000" transform="translate(2,3)rotate(180,333.67,90.5)" opacity="0.25"/><ellipse cx="333.67" cy="90.5" rx="10" ry="10" fill="#ffe6cc" stroke="#d79b00" transform="rotate(180,333.67,90.5)" pointer-events="none"/><ellipse cx="658.17" cy="310.5" rx="10" ry="10" fill="#000000" stroke="#000000" transform="translate(2,3)rotate(180,658.17,310.5)" opacity="0.25"/><ellipse cx="658.17" cy="310.5" rx="10" ry="10" fill="#f8cecc" stroke="#b85450" transform="rotate(180,658.17,310.5)" pointer-events="none"/><ellipse cx="133.67" cy="382.5" rx="10" ry="10" fill="#000000" stroke="#000000" transform="translate(2,3)rotate(180,133.67,382.5)" opacity="0.25"/><ellipse cx="133.67" cy="382.5" rx="10" ry="10" fill="#d5e8d4" stroke="#82b366" transform="rotate(180,133.67,382.5)" pointer-events="none"/><ellipse cx="497.17" cy="140.5" rx="10" ry="10" fill="#000000" stroke="#000000" transform="translate(2,3)rotate(180,497.17,140.5)" opacity="0.25"/><ellipse cx="497.17" cy="140.5" rx="10" ry="10" fill="#dae8fc" stroke="#6c8ebf" transform="rotate(180,497.17,140.5)" pointer-events="none"/><ellipse cx="340.17" cy="430" rx="10" ry="10" fill="#000000" stroke="#000000" transform="translate(2,3)rotate(180,340.17,430)" opacity="0.25"/><ellipse cx="340.17" cy="430" rx="10" ry="10" fill="#fff2cc" stroke="#d6b656" transform="rotate(180,340.17,430)" pointer-events="none"/><ellipse cx="113.67" cy="370.5" rx="10" ry="10" fill="#000000" stroke="#000000" transform="translate(2,3)rotate(180,113.67,370.5)" opacity="0.25"/><ellipse cx="113.67" cy="370.5" rx="10" ry="10" fill="#d5e8d4" stroke="#82b366" transform="rotate(180,113.67,370.5)" pointer-events="none"/><ellipse cx="443.67" cy="463.5" rx="10" ry="10" fill="#000000" stroke="#000000" transform="translate(2,3)rotate(180,443.67,463.5)" opacity="0.25"/><ellipse cx="443.67" cy="463.5" rx="10" ry="10" fill="#fff2cc" stroke="#d6b656" transform="rotate(180,443.67,463.5)" pointer-events="none"/><ellipse cx="253.67" cy="130.5" rx="10" ry="10" fill="#000000" stroke="#000000" transform="translate(2,3)rotate(180,253.67,130.5)" opacity="0.25"/><ellipse cx="253.67" cy="130.5" rx="10" ry="10" fill="#ffe6cc" stroke="#d79b00" transform="rotate(180,253.67,130.5)" pointer-events="none"/><ellipse cx="633.67" cy="360.5" rx="10" ry="10" fill="#000000" stroke="#000000" transform="translate(2,3)rotate(180,633.67,360.5)" opacity="0.25"/><ellipse cx="633.67" cy="360.5" rx="10" ry="10" fill="#f8cecc" stroke="#b85450" transform="rotate(180,633.67,360.5)" pointer-events="none"/><ellipse cx="193.67" cy="310.5" rx="10" ry="10" fill="#000000" stroke="#000000" transform="translate(2,3)rotate(180,193.67,310.5)" opacity="0.25"/><ellipse cx="193.67" cy="310.5" rx="10" ry="10" fill="#d5e8d4" stroke="#82b366" transform="rotate(180,193.67,310.5)" pointer-events="none"/><ellipse cx="512.67" cy="90.5" rx="10" ry="10" fill="#000000" stroke="#000000" transform="translate(2,3)rotate(180,512.67,90.5)" opacity="0.25"/><ellipse cx="512.67" cy="90.5" rx="10" ry="10" fill="#dae8fc" stroke="#6c8ebf" transform="rotate(180,512.67,90.5)" pointer-events="none"/><ellipse cx="283.67" cy="99.5" rx="10" ry="10" fill="#000000" stroke="#000000" transform="translate(2,3)rotate(180,283.67,99.5)" opacity="0.25"/><ellipse cx="283.67" cy="99.5" rx="10" ry="10" fill="#ffe6cc" stroke="#d79b00" transform="rotate(180,283.67,99.5)" pointer-events="none"/><ellipse cx="113.67" cy="340.5" rx="10" ry="10" fill="#000000" stroke="#000000" transform="translate(2,3)rotate(180,113.67,340.5)" opacity="0.25"/><ellipse cx="113.67" cy="340.5" rx="10" ry="10" fill="#d5e8d4" stroke="#82b366" transform="rotate(180,113.67,340.5)" pointer-events="none"/><ellipse cx="627.17" cy="140.5" rx="10" ry="10" fill="#000000" stroke="#000000" transform="translate(2,3)rotate(180,627.17,140.5)" opacity="0.25"/><ellipse cx="627.17" cy="140.5" rx="10" ry="10" fill="#dae8fc" stroke="#6c8ebf" transform="rotate(180,627.17,140.5)" pointer-events="none"/><ellipse cx="430.17" cy="500" rx="10" ry="10" fill="#000000" stroke="#000000" transform="translate(2,3)rotate(180,430.17,500)" opacity="0.25"/><ellipse cx="430.17" cy="500" rx="10" ry="10" fill="#fff2cc" stroke="#d6b656" transform="rotate(180,430.17,500)" pointer-events="none"/><ellipse cx="323.67" cy="40.5" rx="10" ry="10" fill="#000000" stroke="#000000" transform="translate(2,3)rotate(180,323.67,40.5)" opacity="0.25"/><ellipse cx="323.67" cy="40.5" rx="10" ry="10" fill="#ffe6cc" stroke="#d79b00" transform="rotate(180,323.67,40.5)" pointer-events="none"/><ellipse cx="140.17" cy="45.5" rx="10" ry="10" fill="#000000" stroke="#000000" transform="translate(2,3)" opacity="0.25"/><ellipse cx="140.17" cy="45.5" rx="10" ry="10" fill="#ffe6cc" stroke="#d79b00" pointer-events="none"/><ellipse cx="513.67" cy="251.5" rx="10" ry="10" fill="#000000" stroke="#000000" transform="translate(2,3)" opacity="0.25"/><ellipse cx="513.67" cy="251.5" rx="10" ry="10" fill="#f8cecc" stroke="#b85450" pointer-events="none"/><ellipse cx="557.17" cy="81.5" rx="10" ry="10" fill="#000000" stroke="#000000" transform="translate(2,3)" opacity="0.25"/><ellipse cx="557.17" cy="81.5" rx="10" ry="10" fill="#dae8fc" stroke="#6c8ebf" pointer-events="none"/><ellipse cx="363.67" cy="390.5" rx="10" ry="10" fill="#000000" stroke="#000000" transform="translate(2,3)" opacity="0.25"/><ellipse cx="363.67" cy="390.5" rx="10" ry="10" fill="#fff2cc" stroke="#d6b656" pointer-events="none"/><ellipse cx="553.67" cy="271.5" rx="10" ry="10" fill="#000000" stroke="#000000" transform="translate(2,3)" opacity="0.25"/><ellipse cx="553.67" cy="271.5" rx="10" ry="10" fill="#f8cecc" stroke="#b85450" pointer-events="none"/><ellipse cx="523.67" cy="320.5" rx="10" ry="10" fill="#000000" stroke="#000000" transform="translate(2,3)" opacity="0.25"/><ellipse cx="523.67" cy="320.5" rx="10" ry="10" fill="#f8cecc" stroke="#b85450" pointer-events="none"/><ellipse cx="33.67" cy="290.5" rx="10" ry="10" fill="#000000" stroke="#000000" transform="translate(2,3)" opacity="0.25"/><ellipse cx="33.67" cy="290.5" rx="10" ry="10" fill="#d5e8d4" stroke="#82b366" pointer-events="none"/><ellipse cx="547.17" cy="110.5" rx="10" ry="10" fill="#000000" stroke="#000000" transform="translate(2,3)" opacity="0.25"/><ellipse cx="547.17" cy="110.5" rx="10" ry="10" fill="#dae8fc" stroke="#6c8ebf" pointer-events="none"/><ellipse cx="333.67" cy="460.5" rx="10" ry="10" fill="#000000" stroke="#000000" transform="translate(2,3)" opacity="0.25"/><ellipse cx="333.67" cy="460.5" rx="10" ry="10" fill="#fff2cc" stroke="#d6b656" pointer-events="none"/><ellipse cx="150.17" cy="120" rx="10" ry="10" fill="#000000" stroke="#000000" transform="translate(2,3)" opacity="0.25"/><ellipse cx="150.17" cy="120" rx="10" ry="10" fill="#ffe6cc" stroke="#d79b00" pointer-events="none"/></g></svg>