<?xml version="1.0" encoding="UTF-8"?>
<!DOCTYPE svg PUBLIC "-//W3C//DTD SVG 1.1//EN" "http://www.w3.org/Graphics/SVG/1.1/DTD/svg11.dtd">
<svg xmlns="http://www.w3.org/2000/svg" style="background-color: rgb(255, 255, 255);" xmlns:xlink="http://www.w3.org/1999/xlink" version="1.1" width="691px" height="511px" viewBox="-0.5 -0.5 691 511"><defs/><g><ellipse cx="643.67" cy="290.67" rx="10" ry="10" fill="#000000" stroke="#000000" transform="translate(2,3)" opacity="0.25"/><ellipse cx="643.67" cy="290.67" rx="10" ry="10" fill="#f8cecc" stroke="#b85450" pointer-events="none"/><ellipse cx="163.67" cy="340.67" rx="10" ry="10" fill="#000000" stroke="#000000" transform="translate(2,3)" opacity="0.25"/><ellipse cx="163.67" cy="340.67" rx="10" ry="10" fill="#d5e8d4" stroke="#82b366" pointer-events="none"/><ellipse cx="577.17" cy="40.67" rx="10" ry="10" fill="#000000" stroke="#000000" transform="translate(2,3)" opacity="0.25"/><ellipse cx="577.17" cy="40.67" rx="10" ry="10" fill="#dae8fc" stroke="#6c8ebf" pointer-events="none"/><ellipse cx="373.67" cy="480.67" rx="10" ry="10" fill="#000000" stroke="#000000" transform="translate(2,3)" opacity="0.25"/><ellipse cx="373.67" cy="480.67" rx="10" ry="10" fill="#fff2cc" stroke="#d6b656" pointer-events="none"/><ellipse cx="173.67" cy="30.67" rx="10" ry="10" fill="#000000" stroke="#000000" transform="translate(2,3)" opacity="0.25"/><ellipse cx="173.67" cy="30.67" rx="10" ry="10" fill="#ffe6cc" stroke="#d79b00" pointer-events="none"/><ellipse cx="553.67" cy="290.67" rx="10" ry="10" fill="#000000" stroke="#000000" transform="translate(2,3)" opacity="0.25"/><ellipse cx="553.67" cy="290.67" rx="10" ry="10" fill="#f8cecc" stroke="#b85450" pointer-events="none"/><ellipse cx="123.67" cy="290.67" rx="10" ry="10" fill="#000000" stroke="#000000" transform="translate(2,3)" opacity="0.25"/><ellipse cx="123.67" cy="290.67" rx="10" ry="10" fill="#d5e8d4" stroke="#82b366" pointer-events="none"/><ellipse cx="543.67" cy="30.67" rx="10" ry="10" fill="#000000" stroke="#000000" transform="translate(2,3)" opacity="0.25"/><ellipse cx="543.67" cy="30.67" rx="10" ry="10" fill="#dae8fc" stroke="#6c8ebf" pointer-events="none"/><ellipse cx="303.67" cy="470.67" rx="10" ry="10" fill="#000000" stroke="#000000" transform="translate(2,3)" opacity="0.25"/><ellipse cx="303.67" cy="470.67" rx="10" ry="10" fill="#fff2cc" stroke="#d6b656" pointer-events="none"/><ellipse cx="163.67" cy="70.67" rx="10" ry="10" fill="#000000" stroke="#000000" transform="translate(2,3)" opacity="0.25"/><ellipse cx="163.67" cy="70.67" rx="10" ry="10" fill="#ffe6cc" stroke="#d79b00" pointer-events="none"/><ellipse cx="583.67" cy="240.67" rx="10" ry="10" fill="#000000" stroke="#000000" transform="translate(2,3)" opacity="0.25"/><ellipse cx="583.67" cy="240.67" rx="10" ry="10" fill="#f8cecc" stroke="#b85450" pointer-events="none"/><ellipse cx="243.67" cy="356.67" rx="10" ry="10" fill="#000000" stroke="#000000" transform="translate(2,3)" opacity="0.25"/><ellipse cx="243.67" cy="356.67" rx="10" ry="10" fill="#d5e8d4" stroke="#82b366" pointer-events="none"/><ellipse cx="567.17" cy="189.67" rx="10" ry="10" fill="#000000" stroke="#000000" transform="translate(2,3)" opacity="0.25"/><ellipse cx="567.17" cy="189.67" rx="10" ry="10" fill="#dae8fc" stroke="#6c8ebf" pointer-events="none"/><ellipse cx="393.67" cy="410.67" rx="10" ry="10" fill="#000000" stroke="#000000" transform="translate(2,3)" opacity="0.25"/><ellipse cx="393.67" cy="410.67" rx="10" ry="10" fill="#fff2cc" stroke="#d6b656" pointer-events="none"/><ellipse cx="223.67" cy="60.67" rx="10" ry="10" fill="#000000" stroke="#000000" transform="translate(2,3)" opacity="0.25"/><ellipse cx="223.67" cy="60.67" rx="10" ry="10" fill="#ffe6cc" stroke="#d79b00" pointer-events="none"/><ellipse cx="583.67" cy="280.67" rx="10" ry="10" fill="#000000" stroke="#000000" transform="translate(2,3)" opacity="0.25"/><ellipse cx="583.67" cy="280.67" rx="10" ry="10" fill="#f8cecc" stroke="#b85450" pointer-events="none"/><ellipse cx="193.67" cy="330.67" rx="10" ry="10" fill="#000000" stroke="#000000" transform="translate(2,3)" opacity="0.25"/><ellipse cx="193.67" cy="330.67" rx="10" ry="10" fill="#d5e8d4" stroke="#82b366" pointer-events="none"/><ellipse cx="647.17" cy="150.67" rx="10" ry="10" fill="#000000" stroke="#000000" transform="translate(2,3)" opacity="0.25"/><ellipse cx="647.17" cy="150.67" rx="10" ry="10" fill="#dae8fc" stroke="#6c8ebf" pointer-events="none"/><ellipse cx="423.67" cy="400.67" rx="10" ry="10" fill="#000000" stroke="#000000" transform="translate(2,3)" opacity="0.25"/><ellipse cx="423.67" cy="400.67" rx="10" ry="10" fill="#fff2cc" stroke="#d6b656" pointer-events="none"/><ellipse cx="253.67" cy="60.67" rx="10" ry="10" fill="#000000" stroke="#000000" transform="translate(2,3)" opacity="0.25"/><ellipse cx="253.67" cy="60.67" rx="10" ry="10" fill="#ffe6cc" stroke="#d79b00" pointer-events="none"/><ellipse cx="593.67" cy="340.67" rx="10" ry="10" fill="#000000" stroke="#000000" transform="translate(2,3)" opacity="0.25"/><ellipse cx="593.67" cy="340.67" rx="10" ry="10" fill="#f8cecc" stroke="#b85450" pointer-events="none"/><ellipse cx="43.67" cy="350.67" rx="10" ry="10" fill="#000000" stroke="#000000" transform="translate(2,3)" opacity="0.25"/><ellipse cx="43.67" cy="350.67" rx="10" ry="10" fill="#d5e8d4" stroke="#82b366" pointer-events="none"/><ellipse cx="497.17" cy="175.67" rx="10" ry="10" fill="#000000" stroke="#000000" transform="translate(2,3)" opacity="0.25"/><ellipse cx="497.17" cy="175.67" rx="10" ry="10" fill="#dae8fc" stroke="#6c8ebf" pointer-events="none"/><ellipse cx="412.67" cy="457.67" rx="10" ry="10" fill="#000000" stroke="#000000" transform="translate(2,3)" opacity="0.25"/><ellipse cx="412.67" cy="457.67" rx="10" ry="10" fill="#fff2cc" stroke="#d6b656" pointer-events="none"/><ellipse cx="203.67" cy="30.67" rx="10" ry="10" fill="#000000" stroke="#000000" transform="translate(2,3)" opacity="0.25"/><ellipse cx="203.67" cy="30.67" rx="10" ry="10" fill="#ffe6cc" stroke="#d79b00" pointer-events="none"/><ellipse cx="653.67" cy="360.67" rx="10" ry="10" fill="#000000" stroke="#000000" transform="translate(2,3)" opacity="0.25"/><ellipse cx="653.67" cy="360.67" rx="10" ry="10" fill="#f8cecc" stroke="#b85450" pointer-events="none"/><ellipse cx="83.67" cy="350.67" rx="10" ry="10" fill="#000000" stroke="#000000" transform="translate(2,3)" opacity="0.25"/><ellipse cx="83.67" cy="350.67" rx="10" ry="10" fill="#d5e8d4" stroke="#82b366" pointer-events="none"/><ellipse cx="527.17" cy="179.67" rx="10" ry="10" fill="#000000" stroke="#000000" transform="translate(2,3)" opacity="0.25"/><ellipse cx="527.17" cy="179.67" rx="10" ry="10" fill="#dae8fc" stroke="#6c8ebf" pointer-events="none"/><ellipse cx="353.67" cy="450.67" rx="10" ry="10" fill="#000000" stroke="#000000" transform="translate(2,3)" opacity="0.25"/><ellipse cx="353.67" cy="450.67" rx="10" ry="10" fill="#fff2cc" stroke="#d6b656" pointer-events="none"/><ellipse cx="193.67" cy="90.67" rx="10" ry="10" fill="#000000" stroke="#000000" transform="translate(2,3)" opacity="0.25"/><ellipse cx="193.67" cy="90.67" rx="10" ry="10" fill="#ffe6cc" stroke="#d79b00" pointer-events="none"/><ellipse cx="623.67" cy="310.67" rx="10" ry="10" fill="#000000" stroke="#000000" transform="translate(2,3)" opacity="0.25"/><ellipse cx="623.67" cy="310.67" rx="10" ry="10" fill="#f8cecc" stroke="#b85450" pointer-events="none"/><ellipse cx="23.67" cy="310.67" rx="10" ry="10" fill="#000000" stroke="#000000" transform="translate(2,3)" opacity="0.25"/><ellipse cx="23.67" cy="310.67" rx="10" ry="10" fill="#d5e8d4" stroke="#82b366" pointer-events="none"/><ellipse cx="587.17" cy="80.67" rx="10" ry="10" fill="#000000" stroke="#000000" transform="translate(2,3)" opacity="0.25"/><ellipse cx="587.17" cy="80.67" rx="10" ry="10" fill="#dae8fc" stroke="#6c8ebf" pointer-events="none"/><ellipse cx="383.67" cy="440.67" rx="10" ry="10" fill="#000000" stroke="#000000" transform="translate(2,3)" opacity="0.25"/><ellipse cx="383.67" cy="440.67" rx="10" ry="10" fill="#fff2cc" stroke="#d6b656" pointer-events="none"/><ellipse cx="313.67" cy="100.67" rx="10" ry="10" fill="#000000" stroke="#000000" transform="translate(2,3)" opacity="0.25"/><ellipse cx="313.67" cy="100.67" rx="10" ry="10" fill="#ffe6cc" stroke="#d79b00" pointer-events="none"/><ellipse cx="593.67" cy="310.67" rx="10" ry="10" fill="#000000" stroke="#000000" transform="translate(2,3)" opacity="0.25"/><ellipse cx="593.67" cy="310.67" rx="10" ry="10" fill="#f8cecc" stroke="#b85450" pointer-events="none"/><ellipse cx="63.67" cy="320.67" rx="10" ry="10" fill="#000000" stroke="#000000" transform="translate(2,3)" opacity="0.25"/><ellipse cx="63.67" cy="320.67" rx="10" ry="10" fill="#d5e8d4" stroke="#82b366" pointer-events="none"/><ellipse cx="483.67" cy="83.67" rx="10" ry="10" fill="#000000" stroke="#000000" transform="translate(2,3)" opacity="0.25"/><ellipse cx="483.67" cy="83.67" rx="10" ry="10" fill="#dae8fc" stroke="#6c8ebf" pointer-events="none"/><ellipse cx="403.67" cy="360.67" rx="10" ry="10" fill="#000000" stroke="#000000" transform="translate(2,3)" opacity="0.25"/><ellipse cx="403.67" cy="360.67" rx="10" ry="10" fill="#fff2cc" stroke="#d6b656" pointer-events="none"/><ellipse cx="183.67" cy="70.67" rx="10" ry="10" fill="#000000" stroke="#000000" transform="translate(2,3)" opacity="0.25"/><ellipse cx="183.67" cy="70.67" rx="10" ry="10" fill="#ffe6cc" stroke="#d79b00" pointer-events="none"/><ellipse cx="93.67" cy="370.67" rx="10" ry="10" fill="#000000" stroke="#000000" transform="translate(2,3)rotate(180,93.67,370.67)" opacity="0.25"/><ellipse cx="93.67" cy="370.67" rx="10" ry="10" fill="#d5e8d4" stroke="#82b366" transform="rotate(180,93.67,370.67)" pointer-events="none"/><ellipse cx="603.67" cy="280.67" rx="10" ry="10" fill="#000000" stroke="#000000" transform="translate(2,3)rotate(180,603.67,280.67)" opacity="0.25"/><ellipse cx="603.67" cy="280.67" rx="10" ry="10" fill="#f8cecc" stroke="#b85450" transform="rotate(180,603.67,280.67)" pointer-events="none"/><ellipse cx="103.67" cy="300.67" rx="10" ry="10" fill="#000000" stroke="#000000" transform="translate(2,3)rotate(180,103.67,300.67)" opacity="0.25"/><ellipse cx="103.67" cy="300.67" rx="10" ry="10" fill="#d5e8d4" stroke="#82b366" transform="rotate(180,103.67,300.67)" pointer-events="none"/><ellipse cx="567.17" cy="130.67" rx="10" ry="10" fill="#000000" stroke="#000000" transform="translate(2,3)rotate(180,567.17,130.67)" opacity="0.25"/><ellipse cx="567.17" cy="130.67" rx="10" ry="10" fill="#dae8fc" stroke="#6c8ebf" transform="rotate(180,567.17,130.67)" pointer-events="none"/><ellipse cx="433.67" cy="420.67" rx="10" ry="10" fill="#000000" stroke="#000000" transform="translate(2,3)rotate(180,433.67,420.67)" opacity="0.25"/><ellipse cx="433.67" cy="420.67" rx="10" ry="10" fill="#fff2cc" stroke="#d6b656" transform="rotate(180,433.67,420.67)" pointer-events="none"/><ellipse cx="333.67" cy="80.67" rx="10" ry="10" fill="#000000" stroke="#000000" transform="translate(2,3)rotate(180,333.67,80.67)" opacity="0.25"/><ellipse cx="333.67" cy="80.67" rx="10" ry="10" fill="#ffe6cc" stroke="#d79b00" transform="rotate(180,333.67,80.67)" pointer-events="none"/><ellipse cx="658.17" cy="300.67" rx="10" ry="10" fill="#000000" stroke="#000000" transform="translate(2,3)rotate(180,658.17,300.67)" opacity="0.25"/><ellipse cx="658.17" cy="300.67" rx="10" ry="10" fill="#f8cecc" stroke="#b85450" transform="rotate(180,658.17,300.67)" pointer-events="none"/><ellipse cx="133.67" cy="372.67" rx="10" ry="10" fill="#000000" stroke="#000000" transform="translate(2,3)rotate(180,133.67,372.67)" opacity="0.25"/><ellipse cx="133.67" cy="372.67" rx="10" ry="10" fill="#d5e8d4" stroke="#82b366" transform="rotate(180,133.67,372.67)" pointer-events="none"/><ellipse cx="497.17" cy="130.67" rx="10" ry="10" fill="#000000" stroke="#000000" transform="translate(2,3)rotate(180,497.17,130.67)" opacity="0.25"/><ellipse cx="497.17" cy="130.67" rx="10" ry="10" fill="#dae8fc" stroke="#6c8ebf" transform="rotate(180,497.17,130.67)" pointer-events="none"/><ellipse cx="340.17" cy="420.17" rx="10" ry="10" fill="#000000" stroke="#000000" transform="translate(2,3)rotate(180,340.17,420.17)" opacity="0.25"/><ellipse cx="340.17" cy="420.17" rx="10" ry="10" fill="#fff2cc" stroke="#d6b656" transform="rotate(180,340.17,420.17)" pointer-events="none"/><ellipse cx="113.67" cy="360.67" rx="10" ry="10" fill="#000000" stroke="#000000" transform="translate(2,3)rotate(180,113.67,360.67)" opacity="0.25"/><ellipse cx="113.67" cy="360.67" rx="10" ry="10" fill="#d5e8d4" stroke="#82b366" transform="rotate(180,113.67,360.67)" pointer-events="none"/><ellipse cx="443.67" cy="453.67" rx="10" ry="10" fill="#000000" stroke="#000000" transform="translate(2,3)rotate(180,443.67,453.67)" opacity="0.25"/><ellipse cx="443.67" cy="453.67" rx="10" ry="10" fill="#fff2cc" stroke="#d6b656" transform="rotate(180,443.67,453.67)" pointer-events="none"/><ellipse cx="253.67" cy="120.67" rx="10" ry="10" fill="#000000" stroke="#000000" transform="translate(2,3)rotate(180,253.67,120.67)" opacity="0.25"/><ellipse cx="253.67" cy="120.67" rx="10" ry="10" fill="#ffe6cc" stroke="#d79b00" transform="rotate(180,253.67,120.67)" pointer-events="none"/><ellipse cx="633.67" cy="350.67" rx="10" ry="10" fill="#000000" stroke="#000000" transform="translate(2,3)rotate(180,633.67,350.67)" opacity="0.25"/><ellipse cx="633.67" cy="350.67" rx="10" ry="10" fill="#f8cecc" stroke="#b85450" transform="rotate(180,633.67,350.67)" pointer-events="none"/><ellipse cx="193.67" cy="300.67" rx="10" ry="10" fill="#000000" stroke="#000000" transform="translate(2,3)rotate(180,193.67,300.67)" opacity="0.25"/><ellipse cx="193.67" cy="300.67" rx="10" ry="10" fill="#d5e8d4" stroke="#82b366" transform="rotate(180,193.67,300.67)" pointer-events="none"/><ellipse cx="512.67" cy="80.67" rx="10" ry="10" fill="#000000" stroke="#000000" transform="translate(2,3)rotate(180,512.67,80.67)" opacity="0.25"/><ellipse cx="512.67" cy="80.67" rx="10" ry="10" fill="#dae8fc" stroke="#6c8ebf" transform="rotate(180,512.67,80.67)" pointer-events="none"/><ellipse cx="283.67" cy="89.67" rx="10" ry="10" fill="#000000" stroke="#000000" transform="translate(2,3)rotate(180,283.67,89.67)" opacity="0.25"/><ellipse cx="283.67" cy="89.67" rx="10" ry="10" fill="#ffe6cc" stroke="#d79b00" transform="rotate(180,283.67,89.67)" pointer-events="none"/><ellipse cx="113.67" cy="330.67" rx="10" ry="10" fill="#000000" stroke="#000000" transform="translate(2,3)rotate(180,113.67,330.67)" opacity="0.25"/><ellipse cx="113.67" cy="330.67" rx="10" ry="10" fill="#d5e8d4" stroke="#82b366" transform="rotate(180,113.67,330.67)" pointer-events="none"/><ellipse cx="627.17" cy="130.67" rx="10" ry="10" fill="#000000" stroke="#000000" transform="translate(2,3)rotate(180,627.17,130.67)" opacity="0.25"/><ellipse cx="627.17" cy="130.67" rx="10" ry="10" fill="#dae8fc" stroke="#6c8ebf" transform="rotate(180,627.17,130.67)" pointer-events="none"/><ellipse cx="430.17" cy="490.17" rx="10" ry="10" fill="#000000" stroke="#000000" transform="translate(2,3)rotate(180,430.17,490.17)" opacity="0.25"/><ellipse cx="430.17" cy="490.17" rx="10" ry="10" fill="#fff2cc" stroke="#d6b656" transform="rotate(180,430.17,490.17)" pointer-events="none"/><ellipse cx="323.67" cy="30.67" rx="10" ry="10" fill="#000000" stroke="#000000" transform="translate(2,3)rotate(180,323.67,30.67)" opacity="0.25"/><ellipse cx="323.67" cy="30.67" rx="10" ry="10" fill="#ffe6cc" stroke="#d79b00" transform="rotate(180,323.67,30.67)" pointer-events="none"/><ellipse cx="140.17" cy="35.67" rx="10" ry="10" fill="#000000" stroke="#000000" transform="translate(2,3)" opacity="0.25"/><ellipse cx="140.17" cy="35.67" rx="10" ry="10" fill="#ffe6cc" stroke="#d79b00" pointer-events="none"/><ellipse cx="513.67" cy="241.67" rx="10" ry="10" fill="#000000" stroke="#000000" transform="translate(2,3)" opacity="0.25"/><ellipse cx="513.67" cy="241.67" rx="10" ry="10" fill="#f8cecc" stroke="#b85450" pointer-events="none"/><ellipse cx="557.17" cy="71.67" rx="10" ry="10" fill="#000000" stroke="#000000" transform="translate(2,3)" opacity="0.25"/><ellipse cx="557.17" cy="71.67" rx="10" ry="10" fill="#dae8fc" stroke="#6c8ebf" pointer-events="none"/><ellipse cx="363.67" cy="380.67" rx="10" ry="10" fill="#000000" stroke="#000000" transform="translate(2,3)" opacity="0.25"/><ellipse cx="363.67" cy="380.67" rx="10" ry="10" fill="#fff2cc" stroke="#d6b656" pointer-events="none"/><ellipse cx="553.67" cy="261.67" rx="10" ry="10" fill="#000000" stroke="#000000" transform="translate(2,3)" opacity="0.25"/><ellipse cx="553.67" cy="261.67" rx="10" ry="10" fill="#f8cecc" stroke="#b85450" pointer-events="none"/><ellipse cx="523.67" cy="310.67" rx="10" ry="10" fill="#000000" stroke="#000000" transform="translate(2,3)" opacity="0.25"/><ellipse cx="523.67" cy="310.67" rx="10" ry="10" fill="#f8cecc" stroke="#b85450" pointer-events="none"/><ellipse cx="33.67" cy="280.67" rx="10" ry="10" fill="#000000" stroke="#000000" transform="translate(2,3)" opacity="0.25"/><ellipse cx="33.67" cy="280.67" rx="10" ry="10" fill="#d5e8d4" stroke="#82b366" pointer-events="none"/><ellipse cx="547.17" cy="100.67" rx="10" ry="10" fill="#000000" stroke="#000000" transform="translate(2,3)" opacity="0.25"/><ellipse cx="547.17" cy="100.67" rx="10" ry="10" fill="#dae8fc" stroke="#6c8ebf" pointer-events="none"/><ellipse cx="333.67" cy="450.67" rx="10" ry="10" fill="#000000" stroke="#000000" transform="translate(2,3)" opacity="0.25"/><ellipse cx="333.67" cy="450.67" rx="10" ry="10" fill="#fff2cc" stroke="#d6b656" pointer-events="none"/><ellipse cx="150.17" cy="110.17" rx="10" ry="10" fill="#000000" stroke="#000000" transform="translate(2,3)" opacity="0.25"/><ellipse cx="150.17" cy="110.17" rx="10" ry="10" fill="#ffe6cc" stroke="#d79b00" pointer-events="none"/><rect x="80" y="0.17" width="290" height="150" rx="22.5" ry="22.5" fill-opacity="0.8" fill="#ffe6cc" stroke="#d79b00" stroke-opacity="0.8" pointer-events="none"/><rect x="470" y="0.17" width="200" height="210" rx="30" ry="30" fill-opacity="0.8" fill="#dae8fc" stroke="#6c8ebf" stroke-opacity="0.8" pointer-events="none"/><rect x="0" y="261.17" width="270" height="140" rx="21" ry="21" fill-opacity="0.8" fill="#d5e8d4" stroke="#82b366" stroke-opacity="0.8" pointer-events="none"/><rect x="470" y="220.17" width="220" height="160" rx="24" ry="24" fill-opacity="0.8" fill="#f8cecc" stroke="#b85450" stroke-opacity="0.8" pointer-events="none"/><rect x="280" y="320.17" width="180" height="190" rx="27" ry="27" fill-opacity="0.8" fill="#fff2cc" stroke="#d6b656" stroke-opacity="0.8" pointer-events="none"/></g></svg>