<?xml version="1.0" encoding="UTF-8"?>
<!DOCTYPE svg PUBLIC "-//W3C//DTD SVG 1.1//EN" "http://www.w3.org/Graphics/SVG/1.1/DTD/svg11.dtd">
<svg xmlns="http://www.w3.org/2000/svg" style="background-color: rgb(255, 255, 255);" xmlns:xlink="http://www.w3.org/1999/xlink" version="1.1" width="782px" height="542px" viewBox="-0.5 -0.5 782 542"><defs/><g><rect x="0" y="0" width="780" height="540" fill="#ffffff" stroke="none" pointer-events="none"/><ellipse cx="170" cy="184" rx="10" ry="10" fill="#000000" stroke="#000000" transform="translate(2,3)" opacity="0.25"/><ellipse cx="170" cy="184" rx="10" ry="10" fill="#f8cecc" stroke="#b85450" pointer-events="none"/><ellipse cx="249" cy="111" rx="10" ry="10" fill="#000000" stroke="#000000" transform="translate(2,3)" opacity="0.25"/><ellipse cx="249" cy="111" rx="10" ry="10" fill="#d5e8d4" stroke="#82b366" pointer-events="none"/><ellipse cx="189" cy="131" rx="10" ry="10" fill="#000000" stroke="#000000" transform="translate(2,3)" opacity="0.25"/><ellipse cx="189" cy="131" rx="10" ry="10" fill="#dae8fc" stroke="#6c8ebf" pointer-events="none"/><ellipse cx="209" cy="191" rx="10" ry="10" fill="#000000" stroke="#000000" transform="translate(2,3)" opacity="0.25"/><ellipse cx="209" cy="191" rx="10" ry="10" fill="#fff2cc" stroke="#d6b656" pointer-events="none"/><ellipse cx="229" cy="210" rx="10" ry="10" fill="#000000" stroke="#000000" transform="translate(2,3)" opacity="0.25"/><ellipse cx="229" cy="210" rx="10" ry="10" fill="#ffe6cc" stroke="#d79b00" pointer-events="none"/><ellipse cx="269" cy="151" rx="10" ry="10" fill="#000000" stroke="#000000" transform="translate(2,3)" opacity="0.25"/><ellipse cx="269" cy="151" rx="10" ry="10" fill="#f8cecc" stroke="#b85450" pointer-events="none"/><ellipse cx="329" cy="164" rx="10" ry="10" fill="#000000" stroke="#000000" transform="translate(2,3)" opacity="0.25"/><ellipse cx="329" cy="164" rx="10" ry="10" fill="#d5e8d4" stroke="#82b366" pointer-events="none"/><ellipse cx="289" cy="224" rx="10" ry="10" fill="#000000" stroke="#000000" transform="translate(2,3)" opacity="0.25"/><ellipse cx="289" cy="224" rx="10" ry="10" fill="#dae8fc" stroke="#6c8ebf" pointer-events="none"/><ellipse cx="349" cy="237" rx="10" ry="10" fill="#000000" stroke="#000000" transform="translate(2,3)" opacity="0.25"/><ellipse cx="349" cy="237" rx="10" ry="10" fill="#fff2cc" stroke="#d6b656" pointer-events="none"/><ellipse cx="309" cy="98" rx="10" ry="10" fill="#000000" stroke="#000000" transform="translate(2,3)" opacity="0.25"/><ellipse cx="309" cy="98" rx="10" ry="10" fill="#ffe6cc" stroke="#d79b00" pointer-events="none"/><ellipse cx="369" cy="177" rx="10" ry="10" fill="#000000" stroke="#000000" transform="translate(2,3)" opacity="0.25"/><ellipse cx="369" cy="177" rx="10" ry="10" fill="#f8cecc" stroke="#b85450" pointer-events="none"/><ellipse cx="449" cy="230" rx="10" ry="10" fill="#000000" stroke="#000000" transform="translate(2,3)" opacity="0.25"/><ellipse cx="449" cy="230" rx="10" ry="10" fill="#d5e8d4" stroke="#82b366" pointer-events="none"/><ellipse cx="389" cy="124" rx="10" ry="10" fill="#000000" stroke="#000000" transform="translate(2,3)" opacity="0.25"/><ellipse cx="389" cy="124" rx="10" ry="10" fill="#dae8fc" stroke="#6c8ebf" pointer-events="none"/><ellipse cx="409" cy="217" rx="10" ry="10" fill="#000000" stroke="#000000" transform="translate(2,3)" opacity="0.25"/><ellipse cx="409" cy="217" rx="10" ry="10" fill="#fff2cc" stroke="#d6b656" pointer-events="none"/><ellipse cx="429" cy="71" rx="10" ry="10" fill="#000000" stroke="#000000" transform="translate(2,3)" opacity="0.25"/><ellipse cx="429" cy="71" rx="10" ry="10" fill="#ffe6cc" stroke="#d79b00" pointer-events="none"/><ellipse cx="459" cy="138" rx="10" ry="10" fill="#000000" stroke="#000000" transform="translate(2,3)" opacity="0.25"/><ellipse cx="459" cy="138" rx="10" ry="10" fill="#f8cecc" stroke="#b85450" pointer-events="none"/><ellipse cx="558" cy="157" rx="10" ry="10" fill="#000000" stroke="#000000" transform="translate(2,3)" opacity="0.25"/><ellipse cx="558" cy="157" rx="10" ry="10" fill="#d5e8d4" stroke="#82b366" pointer-events="none"/><ellipse cx="469" cy="85" rx="10" ry="10" fill="#000000" stroke="#000000" transform="translate(2,3)" opacity="0.25"/><ellipse cx="469" cy="85" rx="10" ry="10" fill="#dae8fc" stroke="#6c8ebf" pointer-events="none"/><ellipse cx="499" cy="204" rx="10" ry="10" fill="#000000" stroke="#000000" transform="translate(2,3)" opacity="0.25"/><ellipse cx="499" cy="204" rx="10" ry="10" fill="#fff2cc" stroke="#d6b656" pointer-events="none"/><ellipse cx="529" cy="105" rx="10" ry="10" fill="#000000" stroke="#000000" transform="translate(2,3)" opacity="0.25"/><ellipse cx="529" cy="105" rx="10" ry="10" fill="#ffe6cc" stroke="#d79b00" pointer-events="none"/><ellipse cx="180" cy="409" rx="10" ry="10" fill="#000000" stroke="#000000" transform="translate(2,3)" opacity="0.25"/><ellipse cx="180" cy="409" rx="10" ry="10" fill="#f8cecc" stroke="#b85450" pointer-events="none"/><ellipse cx="319" cy="336" rx="10" ry="10" fill="#000000" stroke="#000000" transform="translate(2,3)" opacity="0.25"/><ellipse cx="319" cy="336" rx="10" ry="10" fill="#d5e8d4" stroke="#82b366" pointer-events="none"/><ellipse cx="219" cy="369" rx="10" ry="10" fill="#000000" stroke="#000000" transform="translate(2,3)" opacity="0.25"/><ellipse cx="219" cy="369" rx="10" ry="10" fill="#dae8fc" stroke="#6c8ebf" pointer-events="none"/><ellipse cx="259" cy="429" rx="10" ry="10" fill="#000000" stroke="#000000" transform="translate(2,3)" opacity="0.25"/><ellipse cx="259" cy="429" rx="10" ry="10" fill="#fff2cc" stroke="#d6b656" pointer-events="none"/><ellipse cx="279" cy="442" rx="10" ry="10" fill="#000000" stroke="#000000" transform="translate(2,3)" opacity="0.25"/><ellipse cx="279" cy="442" rx="10" ry="10" fill="#ffe6cc" stroke="#d79b00" pointer-events="none"/><ellipse cx="339" cy="376" rx="10" ry="10" fill="#000000" stroke="#000000" transform="translate(2,3)" opacity="0.25"/><ellipse cx="339" cy="376" rx="10" ry="10" fill="#f8cecc" stroke="#b85450" pointer-events="none"/><ellipse cx="399" cy="402" rx="10" ry="10" fill="#000000" stroke="#000000" transform="translate(2,3)" opacity="0.25"/><ellipse cx="399" cy="402" rx="10" ry="10" fill="#d5e8d4" stroke="#82b366" pointer-events="none"/><ellipse cx="359" cy="448" rx="10" ry="10" fill="#000000" stroke="#000000" transform="translate(2,3)" opacity="0.25"/><ellipse cx="359" cy="448" rx="10" ry="10" fill="#dae8fc" stroke="#6c8ebf" pointer-events="none"/><ellipse cx="160" cy="303" rx="10" ry="10" fill="#000000" stroke="#000000" transform="translate(2,3)" opacity="0.25"/><ellipse cx="160" cy="303" rx="10" ry="10" fill="#fff2cc" stroke="#d6b656" pointer-events="none"/><ellipse cx="379" cy="329" rx="10" ry="10" fill="#000000" stroke="#000000" transform="translate(2,3)" opacity="0.25"/><ellipse cx="379" cy="329" rx="10" ry="10" fill="#ffe6cc" stroke="#d79b00" pointer-events="none"/><ellipse cx="199" cy="257" rx="10" ry="10" fill="#000000" stroke="#000000" transform="translate(2,3)" opacity="0.25"/><ellipse cx="199" cy="257" rx="10" ry="10" fill="#f8cecc" stroke="#b85450" pointer-events="none"/><ellipse cx="299" cy="296" rx="10" ry="10" fill="#000000" stroke="#000000" transform="translate(2,3)" opacity="0.25"/><ellipse cx="299" cy="296" rx="10" ry="10" fill="#d5e8d4" stroke="#82b366" pointer-events="none"/><ellipse cx="419" cy="349" rx="10" ry="10" fill="#000000" stroke="#000000" transform="translate(2,3)" opacity="0.25"/><ellipse cx="419" cy="349" rx="10" ry="10" fill="#dae8fc" stroke="#6c8ebf" pointer-events="none"/><ellipse cx="239" cy="263" rx="10" ry="10" fill="#000000" stroke="#000000" transform="translate(2,3)" opacity="0.25"/><ellipse cx="239" cy="263" rx="10" ry="10" fill="#fff2cc" stroke="#d6b656" pointer-events="none"/><ellipse cx="439" cy="276" rx="10" ry="10" fill="#000000" stroke="#000000" transform="translate(2,3)" opacity="0.25"/><ellipse cx="439" cy="276" rx="10" ry="10" fill="#ffe6cc" stroke="#d79b00" pointer-events="none"/><ellipse cx="70" cy="356" rx="10" ry="10" fill="#000000" stroke="#000000" transform="translate(2,3)" opacity="0.25"/><ellipse cx="70" cy="356" rx="10" ry="10" fill="#f8cecc" stroke="#b85450" pointer-events="none"/><ellipse cx="150" cy="389" rx="10" ry="10" fill="#000000" stroke="#000000" transform="translate(2,3)" opacity="0.25"/><ellipse cx="150" cy="389" rx="10" ry="10" fill="#d5e8d4" stroke="#82b366" pointer-events="none"/><ellipse cx="90" cy="283" rx="10" ry="10" fill="#000000" stroke="#000000" transform="translate(2,3)" opacity="0.25"/><ellipse cx="90" cy="283" rx="10" ry="10" fill="#dae8fc" stroke="#6c8ebf" pointer-events="none"/><ellipse cx="110" cy="422" rx="10" ry="10" fill="#000000" stroke="#000000" transform="translate(2,3)" opacity="0.25"/><ellipse cx="110" cy="422" rx="10" ry="10" fill="#fff2cc" stroke="#d6b656" pointer-events="none"/><ellipse cx="130" cy="316" rx="10" ry="10" fill="#000000" stroke="#000000" transform="translate(2,3)" opacity="0.25"/><ellipse cx="130" cy="316" rx="10" ry="10" fill="#ffe6cc" stroke="#d79b00" pointer-events="none"/><ellipse cx="489" cy="343" rx="10" ry="10" fill="#000000" stroke="#000000" transform="translate(2,3)rotate(180,489,343)" opacity="0.25"/><ellipse cx="489" cy="343" rx="10" ry="10" fill="#d5e8d4" stroke="#82b366" transform="rotate(180,489,343)" pointer-events="none"/><ellipse cx="538" cy="270" rx="10" ry="10" fill="#000000" stroke="#000000" transform="translate(2,3)rotate(180,538,270)" opacity="0.25"/><ellipse cx="538" cy="270" rx="10" ry="10" fill="#f8cecc" stroke="#b85450" transform="rotate(180,538,270)" pointer-events="none"/><ellipse cx="608" cy="290" rx="10" ry="10" fill="#000000" stroke="#000000" transform="translate(2,3)rotate(180,608,290)" opacity="0.25"/><ellipse cx="608" cy="290" rx="10" ry="10" fill="#d5e8d4" stroke="#82b366" transform="rotate(180,608,290)" pointer-events="none"/><ellipse cx="568" cy="323" rx="10" ry="10" fill="#000000" stroke="#000000" transform="translate(2,3)rotate(180,568,323)" opacity="0.25"/><ellipse cx="568" cy="323" rx="10" ry="10" fill="#dae8fc" stroke="#6c8ebf" transform="rotate(180,568,323)" pointer-events="none"/><ellipse cx="509" cy="462" rx="10" ry="10" fill="#000000" stroke="#000000" transform="translate(2,3)rotate(180,509,462)" opacity="0.25"/><ellipse cx="509" cy="462" rx="10" ry="10" fill="#fff2cc" stroke="#d6b656" transform="rotate(180,509,462)" pointer-events="none"/><ellipse cx="588" cy="243" rx="10" ry="10" fill="#000000" stroke="#000000" transform="translate(2,3)rotate(180,588,243)" opacity="0.25"/><ellipse cx="588" cy="243" rx="10" ry="10" fill="#ffe6cc" stroke="#d79b00" transform="rotate(180,588,243)" pointer-events="none"/><ellipse cx="658" cy="310" rx="10" ry="10" fill="#000000" stroke="#000000" transform="translate(2,3)rotate(180,658,310)" opacity="0.25"/><ellipse cx="658" cy="310" rx="10" ry="10" fill="#f8cecc" stroke="#b85450" transform="rotate(180,658,310)" pointer-events="none"/><ellipse cx="638" cy="362" rx="10" ry="10" fill="#000000" stroke="#000000" transform="translate(2,3)rotate(180,638,362)" opacity="0.25"/><ellipse cx="638" cy="362" rx="10" ry="10" fill="#d5e8d4" stroke="#82b366" transform="rotate(180,638,362)" pointer-events="none"/><ellipse cx="678" cy="250" rx="10" ry="10" fill="#000000" stroke="#000000" transform="translate(2,3)rotate(180,678,250)" opacity="0.25"/><ellipse cx="678" cy="250" rx="10" ry="10" fill="#dae8fc" stroke="#6c8ebf" transform="rotate(180,678,250)" pointer-events="none"/><ellipse cx="618" cy="415" rx="10" ry="10" fill="#000000" stroke="#000000" transform="translate(2,3)rotate(180,618,415)" opacity="0.25"/><ellipse cx="618" cy="415" rx="10" ry="10" fill="#fff2cc" stroke="#d6b656" transform="rotate(180,618,415)" pointer-events="none"/><ellipse cx="598" cy="468" rx="10" ry="10" fill="#000000" stroke="#000000" transform="translate(2,3)rotate(180,598,468)" opacity="0.25"/><ellipse cx="598" cy="468" rx="10" ry="10" fill="#d5e8d4" stroke="#82b366" transform="rotate(180,598,468)" pointer-events="none"/><ellipse cx="519" cy="495" rx="10" ry="10" fill="#000000" stroke="#000000" transform="translate(2,3)rotate(180,519,495)" opacity="0.25"/><ellipse cx="519" cy="495" rx="10" ry="10" fill="#fff2cc" stroke="#d6b656" transform="rotate(180,519,495)" pointer-events="none"/><ellipse cx="548" cy="501" rx="10" ry="10" fill="#000000" stroke="#000000" transform="translate(2,3)rotate(180,548,501)" opacity="0.25"/><ellipse cx="548" cy="501" rx="10" ry="10" fill="#ffe6cc" stroke="#d79b00" transform="rotate(180,548,501)" pointer-events="none"/><ellipse cx="628" cy="482" rx="10" ry="10" fill="#000000" stroke="#000000" transform="translate(2,3)rotate(180,628,482)" opacity="0.25"/><ellipse cx="628" cy="482" rx="10" ry="10" fill="#f8cecc" stroke="#b85450" transform="rotate(180,628,482)" pointer-events="none"/><ellipse cx="688" cy="488" rx="10" ry="10" fill="#000000" stroke="#000000" transform="translate(2,3)rotate(180,688,488)" opacity="0.25"/><ellipse cx="688" cy="488" rx="10" ry="10" fill="#d5e8d4" stroke="#82b366" transform="rotate(180,688,488)" pointer-events="none"/><ellipse cx="648" cy="508" rx="10" ry="10" fill="#000000" stroke="#000000" transform="translate(2,3)rotate(180,648,508)" opacity="0.25"/><ellipse cx="648" cy="508" rx="10" ry="10" fill="#dae8fc" stroke="#6c8ebf" transform="rotate(180,648,508)" pointer-events="none"/><ellipse cx="668" cy="455" rx="10" ry="10" fill="#000000" stroke="#000000" transform="translate(2,3)rotate(180,668,455)" opacity="0.25"/><ellipse cx="668" cy="455" rx="10" ry="10" fill="#ffe6cc" stroke="#d79b00" transform="rotate(180,668,455)" pointer-events="none"/><ellipse cx="578" cy="435" rx="10" ry="10" fill="#000000" stroke="#000000" transform="translate(2,3)rotate(180,578,435)" opacity="0.25"/><ellipse cx="578" cy="435" rx="10" ry="10" fill="#d5e8d4" stroke="#82b366" transform="rotate(180,578,435)" pointer-events="none"/><ellipse cx="698" cy="475" rx="10" ry="10" fill="#000000" stroke="#000000" transform="translate(2,3)rotate(180,698,475)" opacity="0.25"/><ellipse cx="698" cy="475" rx="10" ry="10" fill="#dae8fc" stroke="#6c8ebf" transform="rotate(180,698,475)" pointer-events="none"/><ellipse cx="479" cy="382" rx="10" ry="10" fill="#000000" stroke="#000000" transform="translate(2,3)rotate(180,479,382)" opacity="0.25"/><ellipse cx="479" cy="382" rx="10" ry="10" fill="#fff2cc" stroke="#d6b656" transform="rotate(180,479,382)" pointer-events="none"/><ellipse cx="708" cy="396" rx="10" ry="10" fill="#000000" stroke="#000000" transform="translate(2,3)rotate(180,708,396)" opacity="0.25"/><ellipse cx="708" cy="396" rx="10" ry="10" fill="#ffe6cc" stroke="#d79b00" transform="rotate(180,708,396)" pointer-events="none"/><ellipse cx="140" cy="45" rx="10" ry="10" fill="#000000" stroke="#000000" transform="translate(2,3)" opacity="0.25"/><ellipse cx="140" cy="45" rx="10" ry="10" fill="#ffe6cc" stroke="#d79b00" pointer-events="none"/><ellipse cx="80" cy="171" rx="10" ry="10" fill="#000000" stroke="#000000" transform="translate(2,3)" opacity="0.25"/><ellipse cx="80" cy="171" rx="10" ry="10" fill="#f8cecc" stroke="#b85450" pointer-events="none"/><ellipse cx="120" cy="118" rx="10" ry="10" fill="#000000" stroke="#000000" transform="translate(2,3)" opacity="0.25"/><ellipse cx="120" cy="118" rx="10" ry="10" fill="#dae8fc" stroke="#6c8ebf" pointer-events="none"/><ellipse cx="60" cy="65" rx="10" ry="10" fill="#000000" stroke="#000000" transform="translate(2,3)" opacity="0.25"/><ellipse cx="60" cy="65" rx="10" ry="10" fill="#fff2cc" stroke="#d6b656" pointer-events="none"/><ellipse cx="100" cy="52" rx="10" ry="10" fill="#000000" stroke="#000000" transform="translate(2,3)" opacity="0.25"/><ellipse cx="100" cy="52" rx="10" ry="10" fill="#f8cecc" stroke="#b85450" pointer-events="none"/><ellipse cx="229" cy="42" rx="10" ry="10" fill="#000000" stroke="#000000" transform="translate(2,3)" opacity="0.25"/><ellipse cx="229" cy="42" rx="10" ry="10" fill="#f8cecc" stroke="#b85450" pointer-events="none"/><ellipse cx="50" cy="144" rx="10" ry="10" fill="#000000" stroke="#000000" transform="translate(2,3)" opacity="0.25"/><ellipse cx="50" cy="144" rx="10" ry="10" fill="#d5e8d4" stroke="#82b366" pointer-events="none"/><ellipse cx="369" cy="35" rx="10" ry="10" fill="#000000" stroke="#000000" transform="translate(2,3)" opacity="0.25"/><ellipse cx="369" cy="35" rx="10" ry="10" fill="#dae8fc" stroke="#6c8ebf" pointer-events="none"/><ellipse cx="110" cy="233" rx="10" ry="10" fill="#000000" stroke="#000000" transform="translate(2,3)" opacity="0.25"/><ellipse cx="110" cy="233" rx="10" ry="10" fill="#fff2cc" stroke="#d6b656" pointer-events="none"/><ellipse cx="40" cy="78" rx="10" ry="10" fill="#000000" stroke="#000000" transform="translate(2,3)" opacity="0.25"/><ellipse cx="40" cy="78" rx="10" ry="10" fill="#ffe6cc" stroke="#d79b00" pointer-events="none"/></g></svg>