<?xml version="1.0" encoding="UTF-8"?>
<!DOCTYPE svg PUBLIC "-//W3C//DTD SVG 1.1//EN" "http://www.w3.org/Graphics/SVG/1.1/DTD/svg11.dtd">
<svg xmlns="http://www.w3.org/2000/svg" xmlns:xlink="http://www.w3.org/1999/xlink" version="1.1" width="521px" height="41px" viewBox="-0.5 -0.5 521 41" style="background-color: rgb(255, 255, 255);"><defs/><g><path d="M 40 20 L 113.63 20" fill="none" stroke="#000000" stroke-miterlimit="10" pointer-events="none"/><path d="M 118.88 20 L 111.88 23.5 L 113.63 20 L 111.88 16.5 Z" fill="#000000" stroke="#000000" stroke-miterlimit="10" pointer-events="none"/><rect x="0" y="0" width="40" height="40" rx="6" ry="6" fill="#dae8fc" stroke="#6c8ebf" pointer-events="none"/><path d="M 160 20 L 223.63 20" fill="none" stroke="#000000" stroke-miterlimit="10" pointer-events="none"/><path d="M 228.88 20 L 221.88 23.5 L 223.63 20 L 221.88 16.5 Z" fill="#000000" stroke="#000000" stroke-miterlimit="10" pointer-events="none"/><rect x="120" y="0" width="40" height="40" rx="6" ry="6" fill="#d5e8d4" stroke="#82b366" pointer-events="none"/><path d="M 270 20 L 353.63 20" fill="none" stroke="#000000" stroke-miterlimit="10" pointer-events="none"/><path d="M 358.88 20 L 351.88 23.5 L 353.63 20 L 351.88 16.5 Z" fill="#000000" stroke="#000000" stroke-miterlimit="10" pointer-events="none"/><rect x="230" y="0" width="40" height="40" rx="6" ry="6" fill="#fff2cc" stroke="#d6b656" pointer-events="none"/><path d="M 400 20 L 473.63 20" fill="none" stroke="#000000" stroke-miterlimit="10" pointer-events="none"/><path d="M 478.88 20 L 471.88 23.5 L 473.63 20 L 471.88 16.5 Z" fill="#000000" stroke="#000000" stroke-miterlimit="10" pointer-events="none"/><rect x="360" y="0" width="40" height="40" rx="6" ry="6" fill="#ffe6cc" stroke="#d79b00" pointer-events="none"/><rect x="480" y="0" width="40" height="40" rx="6" ry="6" fill="#f8cecc" stroke="#b85450" pointer-events="none"/></g></svg>