<?xml version="1.0" encoding="UTF-8"?>
<!DOCTYPE svg PUBLIC "-//W3C//DTD SVG 1.1//EN" "http://www.w3.org/Graphics/SVG/1.1/DTD/svg11.dtd">
<svg xmlns="http://www.w3.org/2000/svg" xmlns:xlink="http://www.w3.org/1999/xlink" version="1.1" width="661px" height="575px" viewBox="-0.5 -0.5 661 575" style="background-color: rgb(255, 255, 255);"><defs/><g><path d="M 40 294 L 113.63 294" fill="none" stroke="#000000" stroke-miterlimit="10" pointer-events="none"/><path d="M 118.88 294 L 111.88 297.5 L 113.63 294 L 111.88 290.5 Z" fill="#000000" stroke="#000000" stroke-miterlimit="10" pointer-events="none"/><rect x="0" y="274" width="40" height="40" rx="6" ry="6" fill="#dae8fc" stroke="#6c8ebf" pointer-events="none"/><path d="M 160 294 L 223.63 294" fill="none" stroke="#000000" stroke-miterlimit="10" pointer-events="none"/><path d="M 228.88 294 L 221.88 297.5 L 223.63 294 L 221.88 290.5 Z" fill="#000000" stroke="#000000" stroke-miterlimit="10" pointer-events="none"/><rect x="120" y="274" width="40" height="40" rx="6" ry="6" fill="#d5e8d4" stroke="#82b366" pointer-events="none"/><path d="M 270 294 L 353.63 294" fill="none" stroke="#000000" stroke-miterlimit="10" pointer-events="none"/><path d="M 358.88 294 L 351.88 297.5 L 353.63 294 L 351.88 290.5 Z" fill="#000000" stroke="#000000" stroke-miterlimit="10" pointer-events="none"/><rect x="230" y="274" width="40" height="40" rx="6" ry="6" fill="#fff2cc" stroke="#d6b656" pointer-events="none"/><path d="M 400 294 L 473.63 294" fill="none" stroke="#000000" stroke-miterlimit="10" pointer-events="none"/><path d="M 478.88 294 L 471.88 297.5 L 473.63 294 L 471.88 290.5 Z" fill="#000000" stroke="#000000" stroke-miterlimit="10" pointer-events="none"/><rect x="360" y="274" width="40" height="40" rx="6" ry="6" fill="#ffe6cc" stroke="#d79b00" pointer-events="none"/><rect x="480" y="274" width="40" height="40" rx="6" ry="6" fill="#f8cecc" stroke="#b85450" pointer-events="none"/><path d="M 290 324 L 363.63 324" fill="none" stroke="#000000" stroke-miterlimit="10" pointer-events="none"/><path d="M 368.88 324 L 361.88 327.5 L 363.63 324 L 361.88 320.5 Z" fill="#000000" stroke="#000000" stroke-miterlimit="10" pointer-events="none"/><rect x="250" y="304" width="40" height="40" rx="6" ry="6" fill="#fff2cc" stroke="#d6b656" pointer-events="none"/><rect x="370" y="304" width="40" height="40" rx="6" ry="6" fill="#fff2cc" stroke="#d6b656" pointer-events="none"/><path d="M 290 265 L 363.63 265" fill="none" stroke="#000000" stroke-miterlimit="10" pointer-events="none"/><path d="M 368.88 265 L 361.88 268.5 L 363.63 265 L 361.88 261.5 Z" fill="#000000" stroke="#000000" stroke-miterlimit="10" pointer-events="none"/><rect x="250" y="245" width="40" height="40" rx="6" ry="6" fill="#fff2cc" stroke="#d6b656" pointer-events="none"/><rect x="370" y="245" width="40" height="40" rx="6" ry="6" fill="#fff2cc" stroke="#d6b656" pointer-events="none"/><path d="M 280 454 L 353.63 454" fill="none" stroke="#000000" stroke-miterlimit="10" pointer-events="none"/><path d="M 358.88 454 L 351.88 457.5 L 353.63 454 L 351.88 450.5 Z" fill="#000000" stroke="#000000" stroke-miterlimit="10" pointer-events="none"/><rect x="240" y="434" width="40" height="40" rx="6" ry="6" fill="#fff2cc" stroke="#d6b656" pointer-events="none"/><rect x="360" y="434" width="40" height="40" rx="6" ry="6" fill="#fff2cc" stroke="#d6b656" pointer-events="none"/><rect x="230" y="354" width="40" height="40" rx="6" ry="6" fill="#fff2cc" stroke="#d6b656" pointer-events="none"/><path d="M 290 414 L 363.63 414" fill="none" stroke="#000000" stroke-miterlimit="10" pointer-events="none"/><path d="M 368.88 414 L 361.88 417.5 L 363.63 414 L 361.88 410.5 Z" fill="#000000" stroke="#000000" stroke-miterlimit="10" pointer-events="none"/><rect x="250" y="394" width="40" height="40" rx="6" ry="6" fill="#fff2cc" stroke="#d6b656" pointer-events="none"/><rect x="370" y="394" width="40" height="40" rx="6" ry="6" fill="#fff2cc" stroke="#d6b656" pointer-events="none"/><path d="M 300 355 L 373.63 355" fill="none" stroke="#000000" stroke-miterlimit="10" pointer-events="none"/><path d="M 378.88 355 L 371.88 358.5 L 373.63 355 L 371.88 351.5 Z" fill="#000000" stroke="#000000" stroke-miterlimit="10" pointer-events="none"/><rect x="260" y="335" width="40" height="40" rx="6" ry="6" fill="#fff2cc" stroke="#d6b656" pointer-events="none"/><rect x="380" y="335" width="40" height="40" rx="6" ry="6" fill="#fff2cc" stroke="#d6b656" pointer-events="none"/><path d="M 160 294 L 254.56 351.68" fill="none" stroke="#000000" stroke-miterlimit="10" pointer-events="none"/><path d="M 259.05 354.42 L 251.25 353.76 L 254.56 351.68 L 254.89 347.78 Z" fill="#000000" stroke="#000000" stroke-miterlimit="10" pointer-events="none"/><path d="M 260 545.54 L 343.65 551.97" fill="none" stroke="#000000" stroke-miterlimit="10" pointer-events="none"/><path d="M 348.89 552.38 L 341.64 555.33 L 343.65 551.97 L 342.17 548.35 Z" fill="#000000" stroke="#000000" stroke-miterlimit="10" pointer-events="none"/><rect x="220" y="524" width="40" height="40" rx="6" ry="6" fill="#fff2cc" stroke="#d6b656" pointer-events="none"/><path d="M 390 554 L 463.63 554" fill="none" stroke="#000000" stroke-miterlimit="10" pointer-events="none"/><path d="M 468.88 554 L 461.88 557.5 L 463.63 554 L 461.88 550.5 Z" fill="#000000" stroke="#000000" stroke-miterlimit="10" pointer-events="none"/><rect x="350" y="534" width="40" height="40" rx="6" ry="6" fill="#fff2cc" stroke="#d6b656" pointer-events="none"/><rect x="470" y="534" width="40" height="40" rx="6" ry="6" fill="#f8cecc" stroke="#b85450" pointer-events="none"/><path d="M 290 474.71 L 383.64 478.06" fill="none" stroke="#000000" stroke-miterlimit="10" pointer-events="none"/><path d="M 388.88 478.25 L 381.76 481.49 L 383.64 478.06 L 382.01 474.5 Z" fill="#000000" stroke="#000000" stroke-miterlimit="10" pointer-events="none"/><rect x="250" y="454" width="40" height="40" rx="6" ry="6" fill="#fff2cc" stroke="#d6b656" pointer-events="none"/><rect x="390" y="459" width="40" height="40" rx="6" ry="6" fill="#fff2cc" stroke="#d6b656" pointer-events="none"/><path d="M 280 504 L 353.63 504" fill="none" stroke="#000000" stroke-miterlimit="10" pointer-events="none"/><path d="M 358.88 504 L 351.88 507.5 L 353.63 504 L 351.88 500.5 Z" fill="#000000" stroke="#000000" stroke-miterlimit="10" pointer-events="none"/><rect x="240" y="484" width="40" height="40" rx="6" ry="6" fill="#fff2cc" stroke="#d6b656" pointer-events="none"/><rect x="360" y="484" width="40" height="40" rx="6" ry="6" fill="#fff2cc" stroke="#d6b656" pointer-events="none"/><path d="M 160 374 L 223.63 374" fill="none" stroke="#000000" stroke-miterlimit="10" pointer-events="none"/><path d="M 228.88 374 L 221.88 377.5 L 223.63 374 L 221.88 370.5 Z" fill="#000000" stroke="#000000" stroke-miterlimit="10" pointer-events="none"/><path d="M 155.38 394 L 236.12 498.95" fill="none" stroke="#000000" stroke-miterlimit="10" pointer-events="none"/><path d="M 239.32 503.11 L 232.28 499.7 L 236.12 498.95 L 237.82 495.43 Z" fill="#000000" stroke="#000000" stroke-miterlimit="10" pointer-events="none"/><path d="M 160 214 L 243.63 214" fill="none" stroke="#000000" stroke-miterlimit="10" pointer-events="none"/><path d="M 248.88 214 L 241.88 217.5 L 243.63 214 L 241.88 210.5 Z" fill="#000000" stroke="#000000" stroke-miterlimit="10" pointer-events="none"/><path d="M 160 204 L 234.3 166.85" fill="none" stroke="#000000" stroke-miterlimit="10" pointer-events="none"/><path d="M 239 164.5 L 234.3 170.76 L 234.3 166.85 L 231.17 164.5 Z" fill="#000000" stroke="#000000" stroke-miterlimit="10" pointer-events="none"/><path d="M 160 294 L 223.63 294" fill="none" stroke="#000000" stroke-miterlimit="10" pointer-events="none"/><path d="M 228.88 294 L 221.88 297.5 L 223.63 294 L 221.88 290.5 Z" fill="#000000" stroke="#000000" stroke-miterlimit="10" pointer-events="none"/><path d="M 160 299.45 L 243.86 322.32" fill="none" stroke="#000000" stroke-miterlimit="10" pointer-events="none"/><path d="M 248.92 323.71 L 241.25 325.24 L 243.86 322.32 L 243.09 318.49 Z" fill="#000000" stroke="#000000" stroke-miterlimit="10" pointer-events="none"/><path d="M 140 274 L 140 240.37" fill="none" stroke="#000000" stroke-miterlimit="10" pointer-events="none"/><path d="M 140 235.12 L 143.5 242.12 L 140 240.37 L 136.5 242.12 Z" fill="#000000" stroke="#000000" stroke-miterlimit="10" pointer-events="none"/><path d="M 140 314 L 140 347.63" fill="none" stroke="#000000" stroke-miterlimit="10" pointer-events="none"/><path d="M 140 352.88 L 136.5 345.88 L 140 347.63 L 143.5 345.88 Z" fill="#000000" stroke="#000000" stroke-miterlimit="10" pointer-events="none"/><path d="M 160 294 L 243.94 266.95" fill="none" stroke="#000000" stroke-miterlimit="10" pointer-events="none"/><path d="M 248.94 265.34 L 243.35 270.82 L 243.94 266.95 L 241.2 264.16 Z" fill="#000000" stroke="#000000" stroke-miterlimit="10" pointer-events="none"/><path d="M 160 294 L 237 438.38" fill="none" stroke="#000000" stroke-miterlimit="10" pointer-events="none"/><path d="M 239.47 443.01 L 233.09 438.48 L 237 438.38 L 239.27 435.19 Z" fill="#000000" stroke="#000000" stroke-miterlimit="10" pointer-events="none"/><path d="M 160 294 L 225.81 369.21" fill="none" stroke="#000000" stroke-miterlimit="10" pointer-events="none"/><path d="M 229.26 373.16 L 222.02 370.2 L 225.81 369.21 L 227.29 365.59 Z" fill="#000000" stroke="#000000" stroke-miterlimit="10" pointer-events="none"/><path d="M 160 294 L 246.18 408.91" fill="none" stroke="#000000" stroke-miterlimit="10" pointer-events="none"/><path d="M 249.33 413.11 L 242.33 409.61 L 246.18 408.91 L 247.93 405.41 Z" fill="#000000" stroke="#000000" stroke-miterlimit="10" pointer-events="none"/><path d="M 160 294 L 247.15 468.3" fill="none" stroke="#000000" stroke-miterlimit="10" pointer-events="none"/><path d="M 249.5 473 L 243.24 468.3 L 247.15 468.3 L 249.5 465.17 Z" fill="#000000" stroke="#000000" stroke-miterlimit="10" pointer-events="none"/><path d="M 160 294 L 237.73 498.05" fill="none" stroke="#000000" stroke-miterlimit="10" pointer-events="none"/><path d="M 239.6 502.96 L 233.84 497.66 L 237.73 498.05 L 240.38 495.17 Z" fill="#000000" stroke="#000000" stroke-miterlimit="10" pointer-events="none"/><path d="M 160 294 L 218.51 537.81" fill="none" stroke="#000000" stroke-miterlimit="10" pointer-events="none"/><path d="M 219.74 542.91 L 214.7 536.92 L 218.51 537.81 L 221.51 535.29 Z" fill="#000000" stroke="#000000" stroke-miterlimit="10" pointer-events="none"/><path d="M 160 214 L 247.39 408.19" fill="none" stroke="#000000" stroke-miterlimit="10" pointer-events="none"/><path d="M 249.54 412.98 L 243.48 408.03 L 247.39 408.19 L 249.86 405.16 Z" fill="#000000" stroke="#000000" stroke-miterlimit="10" pointer-events="none"/><path d="M 280 164 L 353.63 164" fill="none" stroke="#000000" stroke-miterlimit="10" pointer-events="none"/><path d="M 358.88 164 L 351.88 167.5 L 353.63 164 L 351.88 160.5 Z" fill="#000000" stroke="#000000" stroke-miterlimit="10" pointer-events="none"/><path d="M 280 156.86 L 374 123.28" fill="none" stroke="#000000" stroke-miterlimit="10" pointer-events="none"/><path d="M 378.95 121.52 L 373.53 127.17 L 374 123.28 L 371.18 120.58 Z" fill="#000000" stroke="#000000" stroke-miterlimit="10" pointer-events="none"/><path d="M 280 145.82 L 345.29 86.47" fill="none" stroke="#000000" stroke-miterlimit="10" pointer-events="none"/><path d="M 349.17 82.93 L 346.35 90.23 L 345.29 86.47 L 341.64 85.05 Z" fill="#000000" stroke="#000000" stroke-miterlimit="10" pointer-events="none"/><rect x="240" y="144" width="40" height="40" rx="6" ry="6" fill="#fff2cc" stroke="#d6b656" pointer-events="none"/><rect x="350" y="44" width="40" height="40" rx="6" ry="6" fill="#fff2cc" stroke="#d6b656" pointer-events="none"/><rect x="380" y="94" width="40" height="40" rx="6" ry="6" fill="#fff2cc" stroke="#d6b656" pointer-events="none"/><rect x="360" y="144" width="40" height="40" rx="6" ry="6" fill="#fff2cc" stroke="#d6b656" pointer-events="none"/><path d="M 290 214 L 363.63 214" fill="none" stroke="#000000" stroke-miterlimit="10" pointer-events="none"/><path d="M 368.88 214 L 361.88 217.5 L 363.63 214 L 361.88 210.5 Z" fill="#000000" stroke="#000000" stroke-miterlimit="10" pointer-events="none"/><rect x="250" y="194" width="40" height="40" rx="6" ry="6" fill="#fff2cc" stroke="#d6b656" pointer-events="none"/><rect x="370" y="194" width="40" height="40" rx="6" ry="6" fill="#fff2cc" stroke="#d6b656" pointer-events="none"/><rect x="120" y="194" width="40" height="40" rx="6" ry="6" fill="#d5e8d4" stroke="#82b366" pointer-events="none"/><path d="M 40 278 L 115.03 217.98" fill="none" stroke="#000000" stroke-miterlimit="10" pointer-events="none"/><path d="M 119.13 214.7 L 115.85 221.8 L 115.03 217.98 L 111.47 216.34 Z" fill="#000000" stroke="#000000" stroke-miterlimit="10" pointer-events="none"/><path d="M 40 307.33 L 114.7 357.13" fill="none" stroke="#000000" stroke-miterlimit="10" pointer-events="none"/><path d="M 119.07 360.05 L 111.3 359.08 L 114.7 357.13 L 115.19 353.25 Z" fill="#000000" stroke="#000000" stroke-miterlimit="10" pointer-events="none"/><rect x="120" y="354" width="40" height="40" rx="6" ry="6" fill="#d5e8d4" stroke="#82b366" pointer-events="none"/><path d="M 300 354 L 336.81 50.32" fill="none" stroke="#000000" stroke-miterlimit="10" pointer-events="none"/><path d="M 337.44 45.11 L 340.07 52.48 L 336.81 50.32 L 333.12 51.64 Z" fill="#000000" stroke="#000000" stroke-miterlimit="10" pointer-events="none"/><rect x="320" y="4" width="40" height="40" rx="6" ry="6" fill="#fff2cc" stroke="#d6b656" pointer-events="none"/><path d="M 280 164 L 363.66 171.61" fill="none" stroke="#000000" stroke-miterlimit="10" pointer-events="none"/><path d="M 368.89 172.08 L 361.6 174.93 L 363.66 171.61 L 362.23 167.96 Z" fill="#000000" stroke="#000000" stroke-miterlimit="10" pointer-events="none"/><rect x="370" y="154" width="40" height="40" rx="6" ry="6" fill="#fff2cc" stroke="#d6b656" pointer-events="none"/><path d="M 290 414 L 363.82 432.46" fill="none" stroke="#000000" stroke-miterlimit="10" pointer-events="none"/><path d="M 368.92 433.73 L 361.28 435.43 L 363.82 432.46 L 362.97 428.64 Z" fill="#000000" stroke="#000000" stroke-miterlimit="10" pointer-events="none"/><path d="M 290 414 L 333.63 414.31" fill="none" stroke="#000000" stroke-miterlimit="10" pointer-events="none"/><path d="M 338.88 414.35 L 331.86 417.8 L 333.63 414.31 L 331.91 410.8 Z" fill="#000000" stroke="#000000" stroke-miterlimit="10" pointer-events="none"/><path d="M 290 414 L 354.06 389.09" fill="none" stroke="#000000" stroke-miterlimit="10" pointer-events="none"/><path d="M 358.96 387.18 L 353.7 392.98 L 354.06 389.09 L 351.17 386.46 Z" fill="#000000" stroke="#000000" stroke-miterlimit="10" pointer-events="none"/><rect x="360" y="359" width="40" height="40" rx="6" ry="6" fill="#fff2cc" stroke="#d6b656" pointer-events="none"/><rect x="340" y="394.5" width="40" height="40" rx="6" ry="6" fill="#fff2cc" stroke="#d6b656" pointer-events="none"/><rect x="370" y="419" width="40" height="40" rx="6" ry="6" fill="#fff2cc" stroke="#d6b656" pointer-events="none"/><path d="M 290 414 L 403.73 434.31" fill="none" stroke="#000000" stroke-miterlimit="10" pointer-events="none"/><path d="M 408.9 435.23 L 401.39 437.45 L 403.73 434.31 L 402.62 430.56 Z" fill="#000000" stroke="#000000" stroke-miterlimit="10" pointer-events="none"/><path d="M 430 419 L 430 345.37" fill="none" stroke="#000000" stroke-miterlimit="10" pointer-events="none"/><path d="M 430 340.12 L 433.5 347.12 L 430 345.37 L 426.5 347.12 Z" fill="#000000" stroke="#000000" stroke-miterlimit="10" pointer-events="none"/><rect x="410" y="419" width="40" height="40" rx="6" ry="6" fill="#fff2cc" stroke="#d6b656" pointer-events="none"/><rect x="410" y="299" width="40" height="40" rx="6" ry="6" fill="#fff2cc" stroke="#d6b656" pointer-events="none"/><path d="M 290 324 L 363.88 302.95" fill="none" stroke="#000000" stroke-miterlimit="10" pointer-events="none"/><path d="M 368.92 301.51 L 363.15 306.79 L 363.88 302.95 L 361.23 300.06 Z" fill="#000000" stroke="#000000" stroke-miterlimit="10" pointer-events="none"/><rect x="370" y="275.5" width="40" height="40" rx="6" ry="6" fill="#fff2cc" stroke="#d6b656" pointer-events="none"/><path d="M 300 255.5 L 373.63 255.5" fill="none" stroke="#000000" stroke-miterlimit="10" pointer-events="none"/><path d="M 378.88 255.5 L 371.88 259 L 373.63 255.5 L 371.88 252 Z" fill="#000000" stroke="#000000" stroke-miterlimit="10" pointer-events="none"/><rect x="380" y="235.5" width="40" height="40" rx="6" ry="6" fill="#fff2cc" stroke="#d6b656" pointer-events="none"/><path d="M 281.03 394 L 386.92 202.08" fill="none" stroke="#000000" stroke-miterlimit="10" pointer-events="none"/><path d="M 389.46 197.48 L 389.14 205.3 L 386.92 202.08 L 383.01 201.92 Z" fill="#000000" stroke="#000000" stroke-miterlimit="10" pointer-events="none"/><path d="M 290 214 L 394.97 295.55" fill="none" stroke="#000000" stroke-miterlimit="10" pointer-events="none"/><path d="M 399.12 298.78 L 391.44 297.24 L 394.97 295.55 L 395.74 291.72 Z" fill="#000000" stroke="#000000" stroke-miterlimit="10" pointer-events="none"/><rect x="400" y="295" width="40" height="40" rx="6" ry="6" fill="#fff2cc" stroke="#d6b656" pointer-events="none"/><path d="M 290 474 L 366.63 350.91" fill="none" stroke="#000000" stroke-miterlimit="10" pointer-events="none"/><path d="M 369.41 346.45 L 368.68 354.24 L 366.63 350.91 L 362.74 350.54 Z" fill="#000000" stroke="#000000" stroke-miterlimit="10" pointer-events="none"/><path d="M 290 264 L 373.7 276.56" fill="none" stroke="#000000" stroke-miterlimit="10" pointer-events="none"/><path d="M 378.89 277.33 L 371.45 279.76 L 373.7 276.56 L 372.49 272.83 Z" fill="#000000" stroke="#000000" stroke-miterlimit="10" pointer-events="none"/><path d="M 300 264 L 373.69 254.05" fill="none" stroke="#000000" stroke-miterlimit="10" pointer-events="none"/><path d="M 378.89 253.35 L 372.42 257.75 L 373.69 254.05 L 371.49 250.82 Z" fill="#000000" stroke="#000000" stroke-miterlimit="10" pointer-events="none"/><path d="M 290 264 L 414.23 206.03" fill="none" stroke="#000000" stroke-miterlimit="10" pointer-events="none"/><path d="M 418.99 203.81 L 414.12 209.94 L 414.23 206.03 L 411.16 203.59 Z" fill="#000000" stroke="#000000" stroke-miterlimit="10" pointer-events="none"/><path d="M 440 174 L 440 100.37" fill="none" stroke="#000000" stroke-miterlimit="10" pointer-events="none"/><path d="M 440 95.12 L 443.5 102.12 L 440 100.37 L 436.5 102.12 Z" fill="#000000" stroke="#000000" stroke-miterlimit="10" pointer-events="none"/><path d="M 460 190.57 L 573.72 171.08" fill="none" stroke="#000000" stroke-miterlimit="10" pointer-events="none"/><path d="M 578.9 170.19 L 572.59 174.82 L 573.72 171.08 L 571.41 167.92 Z" fill="#000000" stroke="#000000" stroke-miterlimit="10" pointer-events="none"/><rect x="420" y="174" width="40" height="40" rx="6" ry="6" fill="#fff2cc" stroke="#d6b656" pointer-events="none"/><rect x="420" y="54" width="40" height="40" rx="6" ry="6" fill="#fff2cc" stroke="#d6b656" pointer-events="none"/><rect x="380" y="230.5" width="40" height="40" rx="6" ry="6" fill="#fff2cc" stroke="#d6b656" pointer-events="none"/><rect x="380" y="260.5" width="40" height="40" rx="6" ry="6" fill="#fff2cc" stroke="#d6b656" pointer-events="none"/><path d="M 290 265 L 403.64 261.35" fill="none" stroke="#000000" stroke-miterlimit="10" pointer-events="none"/><path d="M 408.88 261.18 L 402 264.9 L 403.64 261.35 L 401.77 257.91 Z" fill="#000000" stroke="#000000" stroke-miterlimit="10" pointer-events="none"/><rect x="410" y="240.5" width="40" height="40" rx="6" ry="6" fill="#fff2cc" stroke="#d6b656" pointer-events="none"/><rect x="500" y="270" width="40" height="40" rx="6" ry="6" fill="#f8cecc" stroke="#b85450" pointer-events="none"/><path d="M 430 320 L 503.63 320" fill="none" stroke="#000000" stroke-miterlimit="10" pointer-events="none"/><path d="M 508.88 320 L 501.88 323.5 L 503.63 320 L 501.88 316.5 Z" fill="#000000" stroke="#000000" stroke-miterlimit="10" pointer-events="none"/><rect x="510" y="300" width="40" height="40" rx="6" ry="6" fill="#f8cecc" stroke="#b85450" pointer-events="none"/><path d="M 430 261 L 503.63 261" fill="none" stroke="#000000" stroke-miterlimit="10" pointer-events="none"/><path d="M 508.88 261 L 501.88 264.5 L 503.63 261 L 501.88 257.5 Z" fill="#000000" stroke="#000000" stroke-miterlimit="10" pointer-events="none"/><rect x="510" y="241" width="40" height="40" rx="6" ry="6" fill="#f8cecc" stroke="#b85450" pointer-events="none"/><path d="M 450 434 L 493.79 444.01" fill="none" stroke="#000000" stroke-miterlimit="10" pointer-events="none"/><path d="M 498.91 445.18 L 491.31 447.03 L 493.79 444.01 L 492.87 440.21 Z" fill="#000000" stroke="#000000" stroke-miterlimit="10" pointer-events="none"/><rect x="500" y="430" width="40" height="40" rx="6" ry="6" fill="#f8cecc" stroke="#b85450" pointer-events="none"/><path d="M 430 410 L 503.63 410" fill="none" stroke="#000000" stroke-miterlimit="10" pointer-events="none"/><path d="M 508.88 410 L 501.88 413.5 L 503.63 410 L 501.88 406.5 Z" fill="#000000" stroke="#000000" stroke-miterlimit="10" pointer-events="none"/><rect x="510" y="390" width="40" height="40" rx="6" ry="6" fill="#f8cecc" stroke="#b85450" pointer-events="none"/><path d="M 440 351 L 513.63 351" fill="none" stroke="#000000" stroke-miterlimit="10" pointer-events="none"/><path d="M 518.88 351 L 511.88 354.5 L 513.63 351 L 511.88 347.5 Z" fill="#000000" stroke="#000000" stroke-miterlimit="10" pointer-events="none"/><rect x="520" y="331" width="40" height="40" rx="6" ry="6" fill="#f8cecc" stroke="#b85450" pointer-events="none"/><rect x="490" y="530" width="40" height="40" rx="6" ry="6" fill="#f8cecc" stroke="#b85450" pointer-events="none"/><path d="M 430 470.71 L 523.64 474.06" fill="none" stroke="#000000" stroke-miterlimit="10" pointer-events="none"/><path d="M 528.88 474.25 L 521.76 477.49 L 523.64 474.06 L 522.01 470.5 Z" fill="#000000" stroke="#000000" stroke-miterlimit="10" pointer-events="none"/><rect x="530" y="455" width="40" height="40" rx="6" ry="6" fill="#f8cecc" stroke="#b85450" pointer-events="none"/><path d="M 400 504 L 493.64 500.88" fill="none" stroke="#000000" stroke-miterlimit="10" pointer-events="none"/><path d="M 498.88 500.7 L 492 504.44 L 493.64 500.88 L 491.77 497.44 Z" fill="#000000" stroke="#000000" stroke-miterlimit="10" pointer-events="none"/><rect x="500" y="480" width="40" height="40" rx="6" ry="6" fill="#f8cecc" stroke="#b85450" pointer-events="none"/><path d="M 420 160 L 493.63 160" fill="none" stroke="#000000" stroke-miterlimit="10" pointer-events="none"/><path d="M 498.88 160 L 491.88 163.5 L 493.63 160 L 491.88 156.5 Z" fill="#000000" stroke="#000000" stroke-miterlimit="10" pointer-events="none"/><path d="M 420 113.43 L 513.63 110.75" fill="none" stroke="#000000" stroke-miterlimit="10" pointer-events="none"/><path d="M 518.88 110.6 L 511.99 114.3 L 513.63 110.75 L 511.79 107.3 Z" fill="#000000" stroke="#000000" stroke-miterlimit="10" pointer-events="none"/><path d="M 420 114 L 484.54 75.28" fill="none" stroke="#000000" stroke-miterlimit="10" pointer-events="none"/><path d="M 489.04 72.58 L 484.84 79.18 L 484.54 75.28 L 481.24 73.18 Z" fill="#000000" stroke="#000000" stroke-miterlimit="10" pointer-events="none"/><rect x="490" y="40" width="40" height="40" rx="6" ry="6" fill="#f8cecc" stroke="#b85450" pointer-events="none"/><path d="M 560 115 L 560 115" fill="none" stroke="#000000" stroke-miterlimit="10" pointer-events="none"/><path d="M 560 115 L 560 115 L 560 115 L 560 115 Z" fill="#000000" stroke="#000000" stroke-miterlimit="10" pointer-events="none"/><rect x="520" y="90" width="40" height="40" rx="6" ry="6" fill="#f8cecc" stroke="#b85450" pointer-events="none"/><path d="M 580 100 L 580 117.63" fill="none" stroke="#000000" stroke-miterlimit="10" pointer-events="none"/><path d="M 580 122.88 L 576.5 115.88 L 580 117.63 L 583.5 115.88 Z" fill="#000000" stroke="#000000" stroke-miterlimit="10" pointer-events="none"/><rect x="560" y="100" width="40" height="40" rx="6" ry="6" fill="#f8cecc" stroke="#b85450" pointer-events="none"/><rect x="500" y="140" width="40" height="40" rx="6" ry="6" fill="#f8cecc" stroke="#b85450" pointer-events="none"/><path d="M 430 210 L 503.63 210" fill="none" stroke="#000000" stroke-miterlimit="10" pointer-events="none"/><path d="M 508.88 210 L 501.88 213.5 L 503.63 210 L 501.88 206.5 Z" fill="#000000" stroke="#000000" stroke-miterlimit="10" pointer-events="none"/><rect x="510" y="190" width="40" height="40" rx="6" ry="6" fill="#f8cecc" stroke="#b85450" pointer-events="none"/><path d="M 440 350 L 476.81 46.32" fill="none" stroke="#000000" stroke-miterlimit="10" pointer-events="none"/><path d="M 477.44 41.11 L 480.07 48.48 L 476.81 46.32 L 473.12 47.64 Z" fill="#000000" stroke="#000000" stroke-miterlimit="10" pointer-events="none"/><rect x="460" y="0" width="40" height="40" rx="6" ry="6" fill="#f8cecc" stroke="#b85450" pointer-events="none"/><path d="M 410 164 L 503.64 168.68" fill="none" stroke="#000000" stroke-miterlimit="10" pointer-events="none"/><path d="M 508.88 168.94 L 501.72 172.09 L 503.64 168.68 L 502.07 165.1 Z" fill="#000000" stroke="#000000" stroke-miterlimit="10" pointer-events="none"/><rect x="510" y="150" width="40" height="40" rx="6" ry="6" fill="#f8cecc" stroke="#b85450" pointer-events="none"/><path d="M 420 367.31 L 504.58 419.35" fill="none" stroke="#000000" stroke-miterlimit="10" pointer-events="none"/><path d="M 509.05 422.11 L 501.25 421.42 L 504.58 419.35 L 504.92 415.46 Z" fill="#000000" stroke="#000000" stroke-miterlimit="10" pointer-events="none"/><path d="M 410 404 L 473.65 408.6" fill="none" stroke="#000000" stroke-miterlimit="10" pointer-events="none"/><path d="M 478.88 408.98 L 471.65 411.96 L 473.65 408.6 L 472.16 404.98 Z" fill="#000000" stroke="#000000" stroke-miterlimit="10" pointer-events="none"/><path d="M 410 404 L 493.84 381.9" fill="none" stroke="#000000" stroke-miterlimit="10" pointer-events="none"/><path d="M 498.92 380.56 L 493.04 385.73 L 493.84 381.9 L 491.26 378.96 Z" fill="#000000" stroke="#000000" stroke-miterlimit="10" pointer-events="none"/><rect x="500" y="355" width="40" height="40" rx="6" ry="6" fill="#f8cecc" stroke="#b85450" pointer-events="none"/><rect x="480" y="390.5" width="40" height="40" rx="6" ry="6" fill="#f8cecc" stroke="#b85450" pointer-events="none"/><rect x="510" y="415" width="40" height="40" rx="6" ry="6" fill="#f8cecc" stroke="#b85450" pointer-events="none"/><path d="M 400 389 L 573.78 426.8" fill="none" stroke="#000000" stroke-miterlimit="10" pointer-events="none"/><path d="M 578.91 427.91 L 571.32 429.84 L 573.78 426.8 L 572.81 423 Z" fill="#000000" stroke="#000000" stroke-miterlimit="10" pointer-events="none"/><rect x="580" y="412.5" width="40" height="40" rx="6" ry="6" fill="#f8cecc" stroke="#b85450" pointer-events="none"/><path d="M 430 320 L 503.88 298.95" fill="none" stroke="#000000" stroke-miterlimit="10" pointer-events="none"/><path d="M 508.92 297.51 L 503.15 302.79 L 503.88 298.95 L 501.23 296.06 Z" fill="#000000" stroke="#000000" stroke-miterlimit="10" pointer-events="none"/><rect x="510" y="271.5" width="40" height="40" rx="6" ry="6" fill="#f8cecc" stroke="#b85450" pointer-events="none"/><path d="M 440 251.5 L 513.63 251.5" fill="none" stroke="#000000" stroke-miterlimit="10" pointer-events="none"/><path d="M 518.88 251.5 L 511.88 255 L 513.63 251.5 L 511.88 248 Z" fill="#000000" stroke="#000000" stroke-miterlimit="10" pointer-events="none"/><rect x="520" y="231.5" width="40" height="40" rx="6" ry="6" fill="#f8cecc" stroke="#b85450" pointer-events="none"/><path d="M 421.03 390 L 526.92 198.08" fill="none" stroke="#000000" stroke-miterlimit="10" pointer-events="none"/><path d="M 529.46 193.48 L 529.14 201.3 L 526.92 198.08 L 523.01 197.92 Z" fill="#000000" stroke="#000000" stroke-miterlimit="10" pointer-events="none"/><path d="M 430 210 L 534.97 291.55" fill="none" stroke="#000000" stroke-miterlimit="10" pointer-events="none"/><path d="M 539.12 294.78 L 531.44 293.24 L 534.97 291.55 L 535.74 287.72 Z" fill="#000000" stroke="#000000" stroke-miterlimit="10" pointer-events="none"/><rect x="540" y="291" width="40" height="40" rx="6" ry="6" fill="#f8cecc" stroke="#b85450" pointer-events="none"/><path d="M 430 470 L 506.63 346.91" fill="none" stroke="#000000" stroke-miterlimit="10" pointer-events="none"/><path d="M 509.41 342.45 L 508.68 350.24 L 506.63 346.91 L 502.74 346.54 Z" fill="#000000" stroke="#000000" stroke-miterlimit="10" pointer-events="none"/><path d="M 430 260 L 513.7 272.56" fill="none" stroke="#000000" stroke-miterlimit="10" pointer-events="none"/><path d="M 518.89 273.33 L 511.45 275.76 L 513.7 272.56 L 512.49 268.83 Z" fill="#000000" stroke="#000000" stroke-miterlimit="10" pointer-events="none"/><path d="M 440 260 L 513.69 250.05" fill="none" stroke="#000000" stroke-miterlimit="10" pointer-events="none"/><path d="M 518.89 249.35 L 512.42 253.75 L 513.69 250.05 L 511.49 246.82 Z" fill="#000000" stroke="#000000" stroke-miterlimit="10" pointer-events="none"/><path d="M 430 260 L 584.09 197.93" fill="none" stroke="#000000" stroke-miterlimit="10" pointer-events="none"/><path d="M 588.96 195.97 L 583.78 201.84 L 584.09 197.93 L 581.16 195.34 Z" fill="#000000" stroke="#000000" stroke-miterlimit="10" pointer-events="none"/><rect x="590" y="167.5" width="40" height="40" rx="6" ry="6" fill="#f8cecc" stroke="#b85450" pointer-events="none"/><rect x="520" y="226.5" width="40" height="40" rx="6" ry="6" fill="#f8cecc" stroke="#b85450" pointer-events="none"/><rect x="520" y="256.5" width="40" height="40" rx="6" ry="6" fill="#f8cecc" stroke="#b85450" pointer-events="none"/><path d="M 460 194 L 574.15 242.92" fill="none" stroke="#000000" stroke-miterlimit="10" pointer-events="none"/><path d="M 578.97 244.99 L 571.16 245.45 L 574.15 242.92 L 573.92 239.01 Z" fill="#000000" stroke="#000000" stroke-miterlimit="10" pointer-events="none"/><rect x="580" y="234" width="40" height="40" rx="6" ry="6" fill="#f8cecc" stroke="#b85450" pointer-events="none"/><rect x="520" y="274" width="40" height="40" rx="6" ry="6" fill="#f8cecc" stroke="#b85450" pointer-events="none"/><rect x="540" y="270" width="40" height="40" rx="6" ry="6" fill="#f8cecc" stroke="#b85450" pointer-events="none"/><rect x="580" y="297.5" width="40" height="40" rx="6" ry="6" fill="#f8cecc" stroke="#b85450" pointer-events="none"/><rect x="580" y="238.5" width="40" height="40" rx="6" ry="6" fill="#f8cecc" stroke="#b85450" pointer-events="none"/><rect x="540" y="430" width="40" height="40" rx="6" ry="6" fill="#f8cecc" stroke="#b85450" pointer-events="none"/><rect x="580" y="387.5" width="40" height="40" rx="6" ry="6" fill="#f8cecc" stroke="#b85450" pointer-events="none"/><path d="M 480 351 L 583.63 349.01" fill="none" stroke="#b85450" stroke-miterlimit="10" pointer-events="none"/><path d="M 588.88 348.91 L 581.95 352.54 L 583.63 349.01 L 581.82 345.54 Z" fill="#b85450" stroke="#b85450" stroke-miterlimit="10" pointer-events="none"/><rect x="590" y="328.5" width="40" height="40" rx="6" ry="6" fill="#f8cecc" stroke="#b85450" pointer-events="none"/><rect x="530" y="530" width="40" height="40" rx="6" ry="6" fill="#f8cecc" stroke="#b85450" pointer-events="none"/><rect x="600" y="452.5" width="40" height="40" rx="6" ry="6" fill="#f8cecc" stroke="#b85450" pointer-events="none"/><rect x="520" y="480" width="40" height="40" rx="6" ry="6" fill="#f8cecc" stroke="#b85450" pointer-events="none"/><rect x="530" y="40" width="40" height="40" rx="6" ry="6" fill="#f8cecc" stroke="#b85450" pointer-events="none"/><path d="M 540 82.33 L 466.35 76.2" fill="none" stroke="#000000" stroke-miterlimit="10" pointer-events="none"/><path d="M 461.11 75.76 L 468.38 72.85 L 466.35 76.2 L 467.8 79.83 Z" fill="#000000" stroke="#000000" stroke-miterlimit="10" pointer-events="none"/><rect x="540" y="64" width="40" height="40" rx="6" ry="6" fill="#f8cecc" stroke="#b85450" pointer-events="none"/><rect x="540" y="140" width="40" height="40" rx="6" ry="6" fill="#f8cecc" stroke="#b85450" pointer-events="none"/><rect x="550" y="189.5" width="40" height="40" rx="6" ry="6" fill="#f8cecc" stroke="#b85450" pointer-events="none"/><path d="M 480 350 L 516.81 46.32" fill="none" stroke="#b85450" stroke-miterlimit="10" pointer-events="none"/><path d="M 517.44 41.11 L 520.07 48.48 L 516.81 46.32 L 513.12 47.64 Z" fill="#b85450" stroke="#b85450" stroke-miterlimit="10" pointer-events="none"/><rect x="500" y="0" width="40" height="40" rx="6" ry="6" fill="#f8cecc" stroke="#b85450" pointer-events="none"/><rect x="580" y="147.5" width="40" height="40" rx="6" ry="6" fill="#f8cecc" stroke="#b85450" pointer-events="none"/><rect x="540" y="355" width="40" height="40" rx="6" ry="6" fill="#f8cecc" stroke="#b85450" pointer-events="none"/><rect x="520" y="390.5" width="40" height="40" rx="6" ry="6" fill="#f8cecc" stroke="#b85450" pointer-events="none"/><rect x="580" y="412.5" width="40" height="40" rx="6" ry="6" fill="#f8cecc" stroke="#b85450" pointer-events="none"/><rect x="620" y="412.5" width="40" height="40" rx="6" ry="6" fill="#f8cecc" stroke="#b85450" pointer-events="none"/><rect x="580" y="269" width="40" height="40" rx="6" ry="6" fill="#f8cecc" stroke="#b85450" pointer-events="none"/><path d="M 480 251.5 L 583.63 249.51" fill="none" stroke="#b85450" stroke-miterlimit="10" pointer-events="none"/><path d="M 588.88 249.41 L 581.95 253.04 L 583.63 249.51 L 581.82 246.04 Z" fill="#b85450" stroke="#b85450" stroke-miterlimit="10" pointer-events="none"/><rect x="590" y="229" width="40" height="40" rx="6" ry="6" fill="#f8cecc" stroke="#b85450" pointer-events="none"/><rect x="610" y="288.5" width="40" height="40" rx="6" ry="6" fill="#f8cecc" stroke="#b85450" pointer-events="none"/><path d="M 480 260 L 583.68 247.24" fill="none" stroke="#b85450" stroke-miterlimit="10" pointer-events="none"/><path d="M 588.89 246.6 L 582.37 250.93 L 583.68 247.24 L 581.52 243.98 Z" fill="#b85450" stroke="#b85450" stroke-miterlimit="10" pointer-events="none"/><rect x="570" y="174" width="40" height="40" rx="6" ry="6" fill="#f8cecc" stroke="#b85450" pointer-events="none"/><rect x="590" y="224" width="40" height="40" rx="6" ry="6" fill="#f8cecc" stroke="#b85450" pointer-events="none"/><rect x="590" y="254" width="40" height="40" rx="6" ry="6" fill="#f8cecc" stroke="#b85450" pointer-events="none"/><rect x="560" y="201" width="40" height="40" rx="6" ry="6" fill="#f8cecc" stroke="#b85450" pointer-events="none"/></g></svg>