<?xml version="1.0" encoding="UTF-8"?>
<!DOCTYPE svg PUBLIC "-//W3C//DTD SVG 1.1//EN" "http://www.w3.org/Graphics/SVG/1.1/DTD/svg11.dtd">
<svg xmlns="http://www.w3.org/2000/svg" xmlns:xlink="http://www.w3.org/1999/xlink" version="1.1" width="481px" height="471px" viewBox="-0.5 -0.5 481 471"><defs><linearGradient x1="0%" y1="0%" x2="0%" y2="100%" id="mx-gradient-76608a-1-fff2cc-1-s-0"><stop offset="0%" style="stop-color:#76608a"/><stop offset="100%" style="stop-color:#FFF2CC"/></linearGradient><linearGradient x1="0%" y1="0%" x2="0%" y2="100%" id="mx-gradient-76608a-1-b3b3b3-1-s-0"><stop offset="0%" style="stop-color:#76608A"/><stop offset="100%" style="stop-color:#b3b3b3"/></linearGradient><linearGradient x1="0%" y1="0%" x2="0%" y2="100%" id="mx-gradient-f5f5f5-1-b3b3b3-1-s-0"><stop offset="0%" style="stop-color:#f5f5f5"/><stop offset="100%" style="stop-color:#b3b3b3"/></linearGradient></defs><g><path d="M 260 30 L 350 73.21 L 350 386.79 L 260 430 L 170 386.79 L 170 73.21 Z" fill="url(#mx-gradient-76608a-1-fff2cc-1-s-0)" stroke="#432d57" stroke-miterlimit="10" pointer-events="none"/><path d="M 260 116.43 L 350 73.21 L 350 386.79 L 260 430 Z" fill-opacity="0.2" fill="#000000" stroke="none" pointer-events="none"/><path d="M 260 116.43 L 170 73.21 L 170 386.79 L 260 430 Z" fill-opacity="0.2" fill="#ffffff" stroke="none" pointer-events="none"/><path d="M 40 52.32 L 163.2 112.41" fill="none" stroke="#000000" stroke-miterlimit="10" pointer-events="none"/><path d="M 167.92 114.71 L 160.09 114.79 L 163.2 112.41 L 163.16 108.5 Z" fill="#000000" stroke="#000000" stroke-miterlimit="10" pointer-events="none"/><path d="M 25 30 L 40 37.2 L 40 52.8 L 25 60 L 10 52.8 L 10 37.2 Z" fill="url(#mx-gradient-76608a-1-b3b3b3-1-s-0)" stroke="#666666" stroke-miterlimit="10" pointer-events="none"/><path d="M 25 44.4 L 40 37.2 L 40 52.8 L 25 60 Z" fill-opacity="0.2" fill="#000000" stroke="none" pointer-events="none"/><path d="M 25 44.4 L 10 37.2 L 10 52.8 L 25 60 Z" fill-opacity="0.2" fill="#ffffff" stroke="none" pointer-events="none"/><path d="M 30 183.27 L 174.42 262.92" fill="none" stroke="#000000" stroke-miterlimit="10" pointer-events="none"/><path d="M 179.02 265.46 L 171.2 265.14 L 174.42 262.92 L 174.58 259.01 Z" fill="#000000" stroke="#000000" stroke-miterlimit="10" pointer-events="none"/><path d="M 15 160 L 30 167.2 L 30 182.8 L 15 190 L 0 182.8 L 0 167.2 Z" fill="url(#mx-gradient-76608a-1-b3b3b3-1-s-0)" stroke="#666666" stroke-miterlimit="10" pointer-events="none"/><path d="M 15 174.4 L 30 167.2 L 30 182.8 L 15 190 Z" fill-opacity="0.2" fill="#000000" stroke="none" pointer-events="none"/><path d="M 15 174.4 L 0 167.2 L 0 182.8 L 15 190 Z" fill-opacity="0.2" fill="#ffffff" stroke="none" pointer-events="none"/><path d="M 445 94.08 L 355.45 148.31" fill="none" stroke="#000000" stroke-miterlimit="10" pointer-events="none"/><path d="M 350.96 151.03 L 355.13 144.41 L 355.45 148.31 L 358.76 150.4 Z" fill="#000000" stroke="#000000" stroke-miterlimit="10" pointer-events="none"/><path d="M 460 70 L 475 77.2 L 475 92.8 L 460 100 L 445 92.8 L 445 77.2 Z" fill="url(#mx-gradient-76608a-1-b3b3b3-1-s-0)" stroke="#666666" stroke-miterlimit="10" pointer-events="none"/><path d="M 460 84.4 L 475 77.2 L 475 92.8 L 460 100 Z" fill-opacity="0.2" fill="#000000" stroke="none" pointer-events="none"/><path d="M 460 84.4 L 445 77.2 L 445 92.8 L 460 100 Z" fill-opacity="0.2" fill="#ffffff" stroke="none" pointer-events="none"/><path d="M 350 24.15 L 310.44 48.29" fill="none" stroke="#000000" stroke-miterlimit="10" pointer-events="none"/><path d="M 305.95 51.02 L 310.11 44.39 L 310.44 48.29 L 313.75 50.37 Z" fill="#000000" stroke="#000000" stroke-miterlimit="10" pointer-events="none"/><path d="M 365 0 L 380 7.2 L 380 22.8 L 365 30 L 350 22.8 L 350 7.2 Z" fill="url(#mx-gradient-f5f5f5-1-b3b3b3-1-s-0)" stroke="#666666" stroke-miterlimit="10" pointer-events="none"/><path d="M 365 14.4 L 380 7.2 L 380 22.8 L 365 30 Z" fill-opacity="0.2" fill="#000000" stroke="none" pointer-events="none"/><path d="M 365 14.4 L 350 7.2 L 350 22.8 L 365 30 Z" fill-opacity="0.2" fill="#ffffff" stroke="none" pointer-events="none"/><path d="M 40 399.15 L 162.09 351.51" fill="none" stroke="#000000" stroke-miterlimit="10" pointer-events="none"/><path d="M 166.98 349.61 L 161.73 355.41 L 162.09 351.51 L 159.19 348.89 Z" fill="#000000" stroke="#000000" stroke-miterlimit="10" pointer-events="none"/><path d="M 25 390 L 40 397.2 L 40 412.8 L 25 420 L 10 412.8 L 10 397.2 Z" fill="url(#mx-gradient-76608a-1-b3b3b3-1-s-0)" stroke="#666666" stroke-miterlimit="10" pointer-events="none"/><path d="M 25 404.4 L 40 397.2 L 40 412.8 L 25 420 Z" fill-opacity="0.2" fill="#000000" stroke="none" pointer-events="none"/><path d="M 25 404.4 L 10 397.2 L 10 412.8 L 25 420 Z" fill-opacity="0.2" fill="#ffffff" stroke="none" pointer-events="none"/><path d="M 30 286.45 L 163.66 299.39" fill="none" stroke="#000000" stroke-miterlimit="10" pointer-events="none"/><path d="M 168.89 299.89 L 161.58 302.7 L 163.66 299.39 L 162.26 295.73 Z" fill="#000000" stroke="#000000" stroke-miterlimit="10" pointer-events="none"/><path d="M 15 270 L 30 277.2 L 30 292.8 L 15 300 L 0 292.8 L 0 277.2 Z" fill="url(#mx-gradient-76608a-1-b3b3b3-1-s-0)" stroke="#666666" stroke-miterlimit="10" pointer-events="none"/><path d="M 15 284.4 L 30 277.2 L 30 292.8 L 15 300 Z" fill-opacity="0.2" fill="#000000" stroke="none" pointer-events="none"/><path d="M 15 284.4 L 0 277.2 L 0 292.8 L 15 300 Z" fill-opacity="0.2" fill="#ffffff" stroke="none" pointer-events="none"/><path d="M 140 447.23 L 209.35 411.32" fill="none" stroke="#000000" stroke-miterlimit="10" pointer-events="none"/><path d="M 214.01 408.91 L 209.4 415.23 L 209.35 411.32 L 206.18 409.02 Z" fill="#000000" stroke="#000000" stroke-miterlimit="10" pointer-events="none"/><path d="M 125 440 L 140 447.2 L 140 462.8 L 125 470 L 110 462.8 L 110 447.2 Z" fill="url(#mx-gradient-f5f5f5-1-b3b3b3-1-s-0)" stroke="#666666" stroke-miterlimit="10" pointer-events="none"/><path d="M 125 454.4 L 140 447.2 L 140 462.8 L 125 470 Z" fill-opacity="0.2" fill="#000000" stroke="none" pointer-events="none"/><path d="M 125 454.4 L 110 447.2 L 110 462.8 L 125 470 Z" fill-opacity="0.2" fill="#ffffff" stroke="none" pointer-events="none"/><path d="M 390 428.41 L 333.87 403.76" fill="none" stroke="#000000" stroke-miterlimit="10" pointer-events="none"/><path d="M 329.06 401.65 L 336.88 401.26 L 333.87 403.76 L 334.07 407.67 Z" fill="#000000" stroke="#000000" stroke-miterlimit="10" pointer-events="none"/><path d="M 405 420 L 420 427.2 L 420 442.8 L 405 450 L 390 442.8 L 390 427.2 Z" fill="url(#mx-gradient-f5f5f5-1-b3b3b3-1-s-0)" stroke="#666666" stroke-miterlimit="10" pointer-events="none"/><path d="M 405 434.4 L 420 427.2 L 420 442.8 L 405 450 Z" fill-opacity="0.2" fill="#000000" stroke="none" pointer-events="none"/><path d="M 405 434.4 L 390 427.2 L 390 442.8 L 405 450 Z" fill-opacity="0.2" fill="#ffffff" stroke="none" pointer-events="none"/><path d="M 450 216.45 L 359.34 201.07" fill="none" stroke="#000000" stroke-miterlimit="10" pointer-events="none"/><path d="M 354.16 200.19 L 361.65 197.91 L 359.34 201.07 L 360.48 204.81 Z" fill="#000000" stroke="#000000" stroke-miterlimit="10" pointer-events="none"/><path d="M 465 204 L 480 211.2 L 480 226.8 L 465 234 L 450 226.8 L 450 211.2 Z" fill="url(#mx-gradient-76608a-1-b3b3b3-1-s-0)" stroke="#666666" stroke-miterlimit="10" pointer-events="none"/><path d="M 465 218.4 L 480 211.2 L 480 226.8 L 465 234 Z" fill-opacity="0.2" fill="#000000" stroke="none" pointer-events="none"/><path d="M 465 218.4 L 450 211.2 L 450 226.8 L 465 234 Z" fill-opacity="0.2" fill="#ffffff" stroke="none" pointer-events="none"/><path d="M 445 331.75 L 355.58 282.57" fill="none" stroke="#000000" stroke-miterlimit="10" pointer-events="none"/><path d="M 350.98 280.04 L 358.8 280.35 L 355.58 282.57 L 355.43 286.48 Z" fill="#000000" stroke="#000000" stroke-miterlimit="10" pointer-events="none"/><path d="M 460 325 L 475 332.2 L 475 347.8 L 460 355 L 445 347.8 L 445 332.2 Z" fill="url(#mx-gradient-76608a-1-b3b3b3-1-s-0)" stroke="#666666" stroke-miterlimit="10" pointer-events="none"/><path d="M 460 339.4 L 475 332.2 L 475 347.8 L 460 355 Z" fill-opacity="0.2" fill="#000000" stroke="none" pointer-events="none"/><path d="M 460 339.4 L 445 332.2 L 445 347.8 L 460 355 Z" fill-opacity="0.2" fill="#ffffff" stroke="none" pointer-events="none"/></g></svg>