<?xml version="1.0" encoding="UTF-8"?>
<!DOCTYPE svg PUBLIC "-//W3C//DTD SVG 1.1//EN" "http://www.w3.org/Graphics/SVG/1.1/DTD/svg11.dtd">
<svg xmlns="http://www.w3.org/2000/svg" xmlns:xlink="http://www.w3.org/1999/xlink" version="1.1" width="83px" height="285px" viewBox="-0.5 -0.5 83 285" style="background-color: rgb(255, 255, 255);"><defs/><g><path d="M 40 204.5 L 80 223.71 L 80 265.29 L 40 284.5 L 0 265.29 L 0 223.71 Z" fill="#76608a" stroke="#432d57" stroke-miterlimit="10" pointer-events="none"/><path d="M 40 242.91 L 80 223.71 L 80 265.29 L 40 284.5 Z" fill-opacity="0.2" fill="#000000" stroke="none" pointer-events="none"/><path d="M 40 242.91 L 0 223.71 L 0 265.29 L 40 284.5 Z" fill-opacity="0.2" fill="#ffffff" stroke="none" pointer-events="none"/><path d="M 40.5 37.5 L 80.5 56.71 L 80.5 226.29 L 40.5 245.5 L 0.5 226.29 L 0.5 56.71 Z" fill="#f8cecc" stroke="#b85450" stroke-miterlimit="10" pointer-events="none"/><path d="M 40.5 75.91 L 80.5 56.71 L 80.5 226.29 L 40.5 245.5 Z" fill-opacity="0.2" fill="#000000" stroke="none" pointer-events="none"/><path d="M 40.5 75.91 L 0.5 56.71 L 0.5 226.29 L 40.5 245.5 Z" fill-opacity="0.2" fill="#ffffff" stroke="none" pointer-events="none"/><path d="M 41 0.5 L 81 19.71 L 81 61.29 L 41 80.5 L 1 61.29 L 1 19.71 Z" fill="#e1d5e7" stroke="#9673a6" stroke-miterlimit="10" pointer-events="none"/><path d="M 41 38.91 L 81 19.71 L 81 61.29 L 41 80.5 Z" fill-opacity="0.2" fill="#000000" stroke="none" pointer-events="none"/><path d="M 41 38.91 L 1 19.71 L 1 61.29 L 41 80.5 Z" fill-opacity="0.2" fill="#ffffff" stroke="none" pointer-events="none"/></g></svg>